<svg width="634" height="500" viewBox="0 0 634 500" fill="none" xmlns="http://www.w3.org/2000/svg">
<path fill-rule="evenodd" clip-rule="evenodd" d="M50.3333 16.666C31.924 16.666 17 31.59 17 49.9993C17 68.4087 31.924 83.3327 50.3333 83.3327H583.667C602.077 83.3327 617 68.4087 617 49.9993C617 31.59 602.077 16.666 583.667 16.666H50.3333ZM150.333 249.999C150.333 231.589 165.257 216.666 183.667 216.666H583.667C602.077 216.666 617 231.589 617 249.999C617 268.409 602.077 283.333 583.667 283.333H183.667C165.257 283.333 150.333 268.409 150.333 249.999ZM350.333 449.999C350.333 431.589 365.257 416.666 383.667 416.666H583.667C602.077 416.666 617 431.589 617 449.999C617 468.409 602.077 483.333 583.667 483.333H383.667C365.257 483.333 350.333 468.409 350.333 449.999Z" fill="#99040F" stroke="#99040F" stroke-width="33.3333"/>
</svg>
