<svg width="224" height="74" viewBox="0 0 224 74" fill="none" xmlns="http://www.w3.org/2000/svg">
<g clip-path="url(#clip0_609_362)">
<path fill-rule="evenodd" clip-rule="evenodd" d="M64.8483 0C65.6102 0.089103 66.5961 0.267309 67.358 0.490066C67.9854 0.712824 68.8369 1.02468 69.5988 1.4702C71.0777 2.31668 72.9151 4.45515 73.5874 5.83624C74.1251 6.86093 74.5733 7.97471 74.8422 9.04395C74.887 9.1776 75.5592 12.2962 75.5592 13.2763V17.3305C75.4248 18.8007 75.2904 20.2709 75.0215 21.7411C74.5285 24.7261 73.5874 27.8447 72.7807 30.9187C71.7051 34.9729 70.7192 39.1162 70.1814 43.2149C70.0469 44.3733 69.8228 46.6899 69.8228 46.8236V49.4967C69.8228 51.5015 71.0329 52.1698 72.3773 52.1698C72.5118 52.1698 74.6181 51.5906 74.7526 51.5906C75.3352 51.5906 75.3352 52.1252 75.3352 52.4816C75.3352 53.5063 74.9766 54.531 74.5285 55.5557C72.6462 59.7881 69.5988 60.59 66.5961 60.59C63.952 60.59 60.546 59.9217 59.2912 56.0012C59.2912 55.9121 58.9326 54.3974 58.9326 54.13V51.3233C59.0223 48.7393 59.5152 46.1553 59.9634 43.5713C61.2182 37.0223 63.459 30.4732 65.8342 23.9241C66.1479 23.0331 66.4617 22.0975 66.6857 21.2065C67.0443 19.9145 67.2683 18.578 67.5372 17.3305V15.9494C67.3132 14.3456 66.7306 12.0289 64.669 10.9151C64.445 10.826 64.2657 10.6478 64.0864 10.6033C63.1005 10.2914 62.5179 10.1132 61.6664 10.1132C58.3948 10.1132 55.1681 13.009 53.017 16.8405C50.3728 21.4738 49.1628 26.3299 47.8632 31.0969C47.7287 31.5424 47.6839 31.988 47.3702 32.4335C46.1602 33.9482 44.4572 34.4828 43.1127 34.4828C42.4405 34.4828 42.1716 34.5274 41.4545 34.0373C41.0064 33.77 40.7823 33.28 40.603 32.9235C40.4237 32.5226 40.1997 32.1662 40.0204 31.7652C39.0793 29.894 37.9589 27.9338 36.7937 26.0626C34.3736 22.1866 30.385 16.885 26.0379 14.6129C24.2453 13.6773 22.5423 13.2763 20.8841 13.2763C16.9403 13.2763 13.0414 15.9049 11.5624 18.7562C10.6213 20.5382 10.4869 21.7411 10.4869 23.4341C10.4869 25.5725 11.1591 28.2011 12.0106 30.295C13.624 34.1264 16.4025 38.4925 20.1671 42.1011C23.9316 45.7098 27.965 48.2938 31.8191 50.5659C33.2981 51.457 34.777 52.2589 36.2559 53.0608C38.5863 54.3528 41.0512 55.5557 43.4712 56.6695C57.4985 62.9958 71.6155 66.1589 85.6876 67.05L88.3317 67.1836H95.3678L100.253 67.0054C111.591 66.248 123.198 63.8423 134.581 59.6099C137.046 58.6743 139.78 57.5605 142.29 56.4022C144.62 55.3329 147.085 54.0855 149.505 52.7935C150.67 52.1698 151.836 51.457 153.09 50.7441C155.331 49.4076 157.796 47.8483 160.171 46.2444C162.95 44.3733 165.863 42.1011 168.731 39.7399C168.776 39.7399 168.821 39.6954 168.91 39.7399C167.297 41.5665 165.46 43.0367 163.757 44.6406C163.577 44.8188 163.308 44.9079 163.129 45.0861C159.185 48.6502 153.449 52.7044 150.626 54.5756C146.054 57.6051 141.304 60.189 136.688 62.4166C134.94 63.2631 133.147 64.065 131.444 64.7778C130.279 65.2234 129.204 65.758 128.083 66.1589C124.408 67.4955 120.689 68.7875 117.103 69.7676C109.305 71.9506 101.283 73.1981 93.5303 73.8218L90.1692 74L79.1445 73.9555C71.7051 73.5545 64.0416 72.4407 56.647 70.6586C49.2076 68.832 41.589 66.1144 34.1496 62.6394C26.3068 58.9416 16.4474 52.8826 11.7865 48.3384C4.21267 40.9428 0.806682 33.3245 0.0448157 25.9735L0 22.2757C0.0448157 20.8055 0.31371 19.3353 0.672235 17.8651C0.806682 17.5087 0.941129 17.1078 1.03076 16.7514C2.06152 13.0981 5.64678 8.06382 9.85945 5.74714C10.3524 5.47983 10.8902 5.16797 11.3832 4.94521C11.9658 4.67791 12.6828 4.36604 13.3103 4.14329C13.9825 3.92053 14.9236 3.65322 15.6407 3.47502C15.7303 3.47502 18.0607 3.0295 18.733 3.0295H21.2426C21.8252 3.07405 22.363 3.1186 22.9904 3.20771C24.8727 3.47502 26.7998 4.14329 28.7717 5.03432C34.0151 7.48465 39.5723 12.8754 42.8438 18.3107H43.0231C44.8157 13.3209 46.9668 7.84106 52.524 3.34136C53.0618 2.89585 53.734 2.53943 54.3166 2.22757C56.647 0.980132 59.1119 0.222757 61.5319 0H64.8483Z" fill="white"/>
<path fill-rule="evenodd" clip-rule="evenodd" d="M204.583 23.5222C205.031 23.7004 205.524 24.0123 206.017 24.4133C206.152 24.5469 208.079 26.3735 208.079 26.6854C208.079 26.819 207.944 26.9527 207.9 27.0418C206.734 29.5812 205.256 32.388 203.777 34.972C203.239 35.863 198.937 43.6149 197.189 43.6149C196.024 43.6149 195.799 41.5656 195.799 41.0755V39.5608C195.71 37.5114 197.951 23.2104 202.97 23.2104C203.597 23.2104 204.001 23.2995 204.583 23.5222ZM156.093 28.3338L156.003 31.4078C155.689 33.9473 155.196 36.7095 154.345 39.338C153.583 41.5656 152.194 45.798 148.967 45.798C146.233 45.798 145.696 43.3922 145.471 40.9864L145.516 37.6896C145.651 36.6649 145.74 35.5957 145.92 34.5264C146.009 34.0364 146.144 33.5018 146.188 33.0117C146.592 31.7643 148.071 23.0322 152.687 23.0322C155.689 23.0322 155.958 26.329 156.093 28.3338ZM91.4237 21.3392C91.4237 21.4729 91.3341 22.4084 91.2444 22.8985C90.8859 24.5915 90.3481 26.2844 89.9896 28.0665C89.1381 32.0761 87.211 39.338 87.211 44.0159C87.211 44.9069 87.1662 45.397 87.4799 46.3771C87.5696 46.7336 87.704 47.09 87.8833 47.4464C88.0625 47.8028 88.5107 48.382 88.5107 48.4711C88.5107 48.6938 87.0766 49.3175 86.5388 49.5403C86.1803 49.6294 85.8666 49.8522 85.508 49.8967C84.8358 50.0304 84.0739 50.2086 83.4017 50.2086C82.1469 50.2086 79.8613 49.8076 79.2787 47.9364C79.189 47.58 79.0098 46.8672 79.0098 46.7781V44.996C79.1442 43.6595 79.3235 42.2784 79.5476 40.8973C80.1302 37.2886 81.1609 33.68 81.878 30.0713C82.102 28.9575 82.3261 27.7992 82.5054 26.6408C82.5502 26.3735 82.9087 23.4331 82.9087 22.6312C82.9087 22.4975 82.8191 21.9629 82.7743 21.6511C82.7295 21.2501 82.6398 20.8046 82.4606 20.4482C82.4158 20.3145 82.2813 20.0918 82.2813 19.9581C82.2813 19.6017 83.8947 19.2453 84.2532 19.1562C85.4632 18.7998 86.6732 18.6661 87.8833 18.6661C89.5863 18.6661 91.4237 19.0671 91.4237 21.3392ZM204.763 18.3988C205.211 18.4434 205.659 18.4879 206.107 18.577C206.734 18.7107 207.407 18.9334 208.034 19.2007C208.482 19.3789 209.334 19.9581 209.468 19.9581C209.558 19.9581 210.051 19.4235 210.409 19.2453C211.037 18.8889 212.247 18.6216 213.009 18.6216C213.905 18.6216 216.504 19.1116 216.997 19.3789C217.132 19.468 218.073 19.7354 218.073 19.9581C218.073 20.0472 217.669 20.6709 217.535 21.0719C216.908 22.5867 216.415 24.146 216.056 25.7498C214.936 30.2495 214.039 34.972 213.636 39.6053C213.591 40.1399 213.502 41.2537 213.502 41.3874V43.7932C213.591 44.6842 213.681 45.5752 213.905 46.4217C214.039 46.9563 214.622 48.2929 214.622 48.382C214.622 48.5156 214.219 48.7384 214.039 48.9166C212.829 49.8522 211.171 50.2086 209.961 50.2086C207.81 50.2086 205.704 49.3175 205.3 46.2435C205.256 45.9762 205.211 45.4416 205.211 45.3525V43.3031L205.793 38.6252C205.793 38.5806 205.793 38.4915 205.749 38.447C203.194 42.8576 198.623 50.4759 193.245 50.4759C190.153 50.4759 188.046 48.8275 187.464 44.7287C187.419 44.3723 187.329 43.7041 187.329 43.6149V40.3181C187.509 38.937 187.598 37.3332 187.957 35.9966C189.346 29.8485 193.514 22.3193 198.219 19.7799C198.847 19.4235 199.474 19.1562 200.102 18.9334C200.908 18.6661 201.67 18.4879 202.522 18.3988H204.763ZM182.713 18.3988C183.699 18.5325 187.733 18.6216 187.733 21.0719C187.733 21.6065 187.733 21.4729 187.509 22.2302C187.419 22.6758 186.971 23.2549 186.612 23.745C186.478 23.9232 184.73 25.6607 184.461 25.6607C184.237 25.6607 181.907 22.0075 179.038 22.0075C176.574 22.0075 175.588 23.5222 175.588 25.6607C175.588 28.2892 177.873 29.403 180.741 31.5415C181.503 32.1652 182.579 32.7444 183.251 33.7245C184.551 35.5066 184.909 36.8877 184.909 38.5806C184.909 45.0851 180.383 49.0502 174.467 50.164C173.705 50.2977 172.271 50.4759 172.137 50.4759H169.537C168.193 50.3422 166.669 50.164 165.325 49.674C164.697 49.4512 163.308 48.4711 163.174 47.7582C163.174 47.6691 163.084 47.5355 163.084 47.4464V45.9316C163.218 44.996 164.07 44.1941 165.011 43.3922C165.683 42.813 166.445 42.1002 167.162 41.4319C167.207 41.4319 167.297 41.521 167.297 41.5656C167.521 42.1002 167.745 42.6794 168.014 43.214C169.134 45.5307 171.24 46.4217 172.988 46.4217C174.736 46.4217 176.798 45.7089 177.111 42.9912V41.6992C176.932 41.2092 176.663 40.63 176.26 40.1399C174.602 37.9124 172.271 36.3976 170.254 34.7047C169 33.7245 168.014 31.2296 168.014 29.8485V28.6457C168.103 28.0219 168.193 27.3537 168.283 26.6854C168.596 24.1014 171.599 20.5818 174.422 19.5572C174.646 19.468 174.871 19.3344 175.139 19.2453C176.484 18.7107 177.784 18.5325 179.218 18.3988H182.713ZM155.51 18.3988C162.322 19.2007 164.742 24.5469 164.742 29.1803C164.742 29.2694 164.742 29.4921 164.697 30.4277C164.608 31.6306 164.384 33.1008 164.115 34.3482C163.935 35.2838 163.622 36.264 163.263 37.1995C162.994 37.9569 162.636 38.7588 162.232 39.5608C158.334 46.9118 153.359 50.4759 147.443 50.4759C143.634 50.4759 139.466 49.0502 137.494 43.9714C137.315 43.4813 136.867 41.8329 136.867 41.0755V37.8233C136.912 37.2886 136.956 36.754 137.046 36.2194C137.673 30.5168 142.245 22.0966 149.057 19.3344C149.639 19.1116 150.356 18.8443 151.029 18.7107C151.656 18.577 152.328 18.4879 152.956 18.3988H155.51ZM116.565 18.3988C119.389 18.7998 119.747 21.4283 119.747 23.2104C119.747 25.4825 118.672 29.2248 118.672 30.1604C118.672 30.2495 118.672 30.2941 118.761 30.3832C121.002 26.5963 124.946 20.1809 129.696 18.6216C130.637 18.3097 130.862 18.3988 131.579 18.3988C131.713 18.3988 132.206 18.3543 132.52 18.3988C135.253 18.8889 135.702 21.1165 135.702 22.8985C135.702 24.9479 134.357 30.6059 134.223 31.4524C133.954 32.8335 132.296 41.1646 132.296 43.9268C132.296 45.397 132.116 44.8624 132.744 46.9563C132.878 47.4464 133.595 48.382 133.595 48.4711C133.595 48.7384 132.251 49.273 131.892 49.4512C130.772 49.9413 129.651 50.2086 128.531 50.2086C125.573 50.2086 124.542 48.4265 124.542 45.9316C124.542 45.8425 124.542 45.6198 124.587 44.3278C124.722 43.1249 124.856 41.8774 125.035 40.6746C125.797 35.9521 127.007 31.1405 127.769 26.4181V25.5271C127.5 25.1261 127.5 25.1706 127.231 25.1706C126.47 25.1706 125.573 26.4181 125.035 27.1309C123.781 28.7348 122.66 30.6059 121.674 32.2543C121.226 32.9226 120.823 33.6354 120.419 34.3928C118.582 37.5114 115.49 43.5258 115.49 47.2682V47.9364C115.579 48.4265 115.803 49.273 115.803 49.3621C115.803 49.8076 113.339 50.1195 112.622 50.164C111.77 50.164 111.546 50.2086 111.456 50.2086C109.888 50.2086 108.05 49.674 108.05 47.5355C108.05 45.2634 112.084 29.5367 112.084 25.9726C112.084 25.5716 111.994 25.1706 111.501 25.1706C110.829 25.1706 109.709 26.6408 109.35 27.0864C107.961 28.8684 106.975 30.6505 105.854 32.4325C104.644 34.3482 103.524 36.3531 102.538 38.4024C101.283 40.9419 99.7594 44.4614 99.7594 47.3127C99.7594 47.4018 99.7146 47.7582 99.7594 47.981C99.8042 48.4265 100.073 49.273 100.073 49.3621C100.073 49.8076 97.6979 50.1195 96.936 50.164C96.0845 50.164 95.9053 50.2086 95.8156 50.2086C94.8745 50.2086 93.1267 50.0304 92.4545 48.8275C92.32 48.5156 92.1408 48.0255 92.1408 47.9364V46.4662C92.4545 44.0605 93.2163 41.4319 93.7541 39.0707C94.5608 35.7293 95.3227 32.388 95.9053 29.0466C96.2638 27.1755 96.5327 25.2152 96.7568 23.344C96.7568 22.1857 96.8016 22.1857 96.8016 22.052C96.8016 20.7155 96.3534 19.9581 96.3534 19.8245C96.3534 19.6017 97.3394 19.3789 97.4738 19.3344C98.1461 19.1562 98.8183 18.8889 99.5802 18.7998C100.163 18.7107 101.328 18.6216 101.418 18.6216C103.569 18.6216 104.644 19.6017 104.644 21.6956C104.644 24.1014 103.345 28.6457 102.986 30.1604C102.986 30.1604 102.986 30.205 103.031 30.2941C103.121 30.205 103.255 30.0267 103.345 29.8485C103.838 29.0466 104.331 28.1556 104.824 27.3982C106.706 24.4133 110.201 19.9136 113.607 18.7107C113.966 18.577 114.369 18.4879 114.773 18.3988H115.669C115.759 18.3988 116.252 18.3543 116.565 18.3988ZM93.3956 10.6023C93.3956 11.7161 92.9923 12.8299 92.4545 13.9437C92.3648 14.1219 92.0511 14.1664 91.8719 14.2555C91.2893 14.5228 90.6618 14.7456 90.0344 14.8792C89.1381 15.102 88.69 15.1466 87.9729 15.1466C87.1214 15.1466 86.8973 15.1911 85.9114 14.7901C85.6425 14.701 85.0151 14.211 85.0151 13.81V12.7853L85.4184 10.2013C85.4184 9.66672 85.1943 9.48852 85.1943 9.22121C85.1943 8.9539 86.5388 8.64204 86.8525 8.55294C88.4659 8.10742 88.7348 8.10742 90.0344 8.10742C91.603 8.10742 93.3956 8.37473 93.3956 10.6023Z" fill="white"/>
<path fill-rule="evenodd" clip-rule="evenodd" d="M221.837 13.2757C221.837 13.543 221.613 13.7657 221.344 13.7657H220.314V12.8747H220.851C221.165 12.8747 221.837 12.7856 221.837 13.2757ZM222.375 13.2757C222.375 13.6766 222.106 14.033 221.658 14.2112C221.972 14.6122 222.33 15.1023 222.599 15.5478C222.51 15.6369 222.465 15.6814 222.33 15.6814C221.882 15.6814 221.389 14.5231 221.165 14.3449C220.941 14.2112 220.582 14.2112 220.448 14.2112C220.358 14.2112 220.314 14.2558 220.269 14.3003V15.5032C220.224 15.5923 220.134 15.6814 220 15.6814C219.91 15.6814 219.865 15.6369 219.821 15.5923V12.4292H220.807C221.434 12.4292 222.375 12.251 222.375 13.2757ZM223.585 14.033C223.585 15.4587 222.42 16.617 220.986 16.617C219.507 16.617 218.387 15.4587 218.387 14.033C218.387 12.5183 219.552 11.4491 220.986 11.4491C222.51 11.4491 223.585 12.6965 223.585 14.033ZM223.854 12.8301C224.033 13.1866 223.988 13.6321 223.988 14.033C223.988 14.1221 224.033 14.6122 223.944 14.9241C223.54 16.5279 222.106 17.1516 220.986 17.1516C220.851 17.1516 220.448 17.1071 220.224 17.0625C220.045 17.0625 219.91 16.9289 219.731 16.8843C219.104 16.7952 217.894 15.325 217.894 14.7459V13.3202C218.655 11.3154 219.641 10.959 220.941 10.959C222.106 10.959 223.182 11.2708 223.854 12.8301Z" fill="white"/>
<path fill-rule="evenodd" clip-rule="evenodd" d="M206.869 63.1295C206.869 63.7087 206.511 67.4955 205.032 67.4955C204.404 67.4955 204.18 66.7827 204.18 66.4263V65.5353C204.135 64.9115 204.718 61.5702 206.018 61.5702C206.914 61.5702 206.869 62.8176 206.869 63.1295ZM185.044 62.1939C185.044 62.8622 184.73 63.8869 183.565 64.0205C183.475 64.0205 183.386 64.1096 183.251 64.1096H182.893V63.8869C182.982 63.6195 183.431 61.4365 184.506 61.4365C184.954 61.4365 185.044 61.882 185.044 62.1939ZM167.655 61.1247C167.655 61.2138 167.297 62.5949 167.162 63.3077C167.073 63.7087 166.535 66.2035 166.535 67.05C166.535 67.6292 166.894 68.0747 166.894 68.2083C166.894 68.4757 165.549 68.743 165.504 68.743C165.28 68.743 164.384 68.5202 164.384 68.0301V66.7382C164.653 65.4462 164.966 64.1096 165.191 62.8176C165.28 62.3721 165.37 61.6147 165.37 61.4811C165.37 61.392 165.235 60.9019 165.235 60.8128C165.235 60.4118 166.535 60.3673 166.625 60.3673C167.118 60.3673 167.655 60.3673 167.655 61.1247ZM215.653 61.0356C215.653 61.392 215.07 62.1939 214.801 62.1939C214.533 62.1939 214.084 61.2583 213.278 61.2583C212.606 61.2583 212.426 61.882 212.426 62.1939C212.426 63.4413 214.936 63.6641 214.936 65.6244C214.936 67.9856 212.695 68.7875 211.171 68.7875C210.768 68.7875 209.424 68.6539 209.2 68.2083C209.11 68.0747 209.155 67.8519 209.155 67.7628C209.155 67.1391 209.289 67.0055 210.185 66.3372C210.634 67.1837 211.037 67.6737 211.754 67.6737C212.337 67.6737 212.83 67.2728 212.83 66.649C212.83 66.5154 212.785 66.2926 212.65 66.159C212.157 65.3571 211.037 64.867 210.634 64.1542C210.544 64.0205 210.41 63.3522 210.41 63.1295C210.41 60.9465 212.337 60.2782 213.86 60.2782C214.309 60.2782 215.653 60.2336 215.653 61.0356ZM209.244 63.174C209.244 65.1788 207.631 68.7875 204.673 68.7875C204.539 68.7875 204.091 68.743 203.866 68.6984C203.015 68.6093 201.895 67.4064 201.895 66.649V64.9561C202.388 62.3276 204.135 60.2782 206.421 60.2782C208.393 60.2782 209.244 61.6593 209.244 63.174ZM195.083 61.5702C195.083 63.174 194.186 65.4016 194.186 67.05C194.186 67.2728 194.321 67.941 194.545 68.2083C194.41 68.4757 193.38 68.743 193.156 68.743C192.438 68.743 191.99 68.2975 191.99 67.5846C191.99 66.159 192.842 63.3968 192.842 62.4167C192.842 62.283 192.842 62.0602 192.663 62.0602C192.394 62.0602 191.99 62.684 191.901 62.8622C191.184 63.8869 190.467 65.1343 190.063 66.2926C189.481 67.9856 189.75 67.1391 189.75 68.342C189.75 68.6093 188.674 68.743 188.584 68.743C188.405 68.743 187.554 68.5648 187.554 68.2083V67.4064C187.733 66.3817 188.764 62.8176 188.764 61.3474C188.764 61.2138 188.674 60.9019 188.674 60.7683C188.674 60.4564 189.884 60.3227 189.974 60.3227C190.108 60.3227 190.422 60.3227 190.646 60.4564C190.735 60.5009 190.96 60.6792 190.96 60.8128V61.5702C190.87 62.0157 190.78 62.4167 190.691 62.8622C190.691 62.8622 190.646 62.9067 190.78 62.9067C190.87 62.9067 192.035 60.2782 193.783 60.2782C194.724 60.2782 195.083 60.7683 195.083 61.5702ZM187.15 61.7484C187.15 62.1493 187.016 62.6394 186.836 63.0849C186.612 63.7087 185.761 64.3769 185.223 64.6442C184.73 64.9115 184.237 65.0452 183.744 65.1343C183.431 65.1788 183.072 65.2234 182.758 65.268C182.579 65.4462 182.624 65.7135 182.624 65.8917C182.624 66.8273 182.848 67.4955 183.834 67.4955C185.044 67.4955 186.164 66.4263 186.344 66.4263C186.568 66.4263 186.612 66.9164 186.612 66.9164C186.612 68.342 183.744 68.7875 183.027 68.7875C182.131 68.7875 180.966 68.6539 180.383 67.4064C180.338 67.2282 180.249 66.9609 180.249 66.8718V65.6244C180.697 62.6394 182.669 60.2782 185.313 60.2782C186.299 60.2782 187.15 60.5455 187.15 61.7484ZM175.498 61.5702C175.498 61.6593 175.364 62.5949 175.229 63.174L175.319 63.2631C175.991 62.0157 177.246 60.2782 178.546 60.2782C179.307 60.2782 179.576 60.59 179.711 61.4811L178.814 67.0055C178.814 67.3173 178.859 67.6292 178.949 67.8965C178.994 67.9856 179.128 68.0747 179.128 68.1638C179.128 68.5202 177.829 68.743 177.829 68.743C177.515 68.743 176.708 68.4757 176.708 67.8965V67.05L177.56 62.3276C177.56 62.283 177.515 62.1939 177.47 62.1048C176.619 62.5949 176.17 63.6195 175.677 64.466C175.05 65.4462 174.557 66.4708 174.378 67.5401C174.333 67.7628 174.378 68.1192 174.378 68.4311C174.198 68.5648 173.616 68.743 173.347 68.743C173.078 68.743 172.182 68.5648 172.361 67.9856L173.437 62.3276C173.347 62.1493 173.347 62.1493 173.257 62.1493C173.033 62.1493 172.451 62.9958 172.406 63.0404C171.599 64.2433 170.927 65.4462 170.479 66.649C170.344 67.0055 170.21 67.4955 170.21 67.8965C170.21 68.0301 170.3 68.2529 170.3 68.3866C170.3 68.6539 169.134 68.743 169.134 68.743C169.045 68.743 168.193 68.6093 168.193 68.2529V67.3173C168.328 66.7382 169.403 62.7731 169.403 61.2583C169.403 61.1692 169.314 60.9019 169.314 60.8128C169.314 60.6792 169.314 60.59 169.448 60.5455C169.807 60.4118 170.524 60.3227 170.613 60.3227C171.196 60.3227 171.51 60.6346 171.51 61.1247C171.51 61.2583 171.196 62.7731 171.196 62.8622C171.196 62.9958 171.196 63.0404 171.241 63.0849C172.092 61.7929 173.033 60.2782 174.378 60.2782C175.184 60.2782 175.498 60.9019 175.498 61.5702ZM156.362 64.0651H154.48C154.48 64.0651 154.435 64.0205 154.435 63.976L156.362 59.9218V64.0651ZM200.012 59.0753C200.012 59.4763 199.519 61.2583 199.519 61.3474C199.519 61.4365 199.564 61.392 199.564 61.4811H200.505C200.909 61.4365 201.491 61.3029 201.626 61.3029C201.715 61.3029 201.895 61.3474 201.895 61.4811C201.895 61.6147 201.85 61.6593 201.805 61.7038C201.76 62.3276 200.819 62.7731 200.371 62.7731H199.34C199.026 63.2631 198.713 65.3571 198.713 66.159C198.713 66.5599 198.713 67.1837 199.34 67.1837C199.699 67.1837 200.729 66.6045 200.774 66.6045C200.909 66.6045 201.043 67.1837 201.043 67.2728C201.043 68.342 199.116 68.7875 198.578 68.7875C197.906 68.7875 196.741 68.5202 196.606 67.4064C196.606 67.3173 196.562 67.2282 196.562 67.1391V66.3372C196.606 66.0699 196.651 65.8026 196.651 65.5353C196.786 64.6888 197.099 63.0849 197.099 62.9958C197.099 62.8176 196.92 62.7731 196.83 62.7731C196.696 62.7731 196.293 62.7731 196.024 62.8622C195.934 62.8622 195.844 62.9958 195.71 62.9958C195.441 62.9958 195.531 62.6394 195.531 62.5503C195.531 62.1493 195.351 61.9266 195.979 61.6147C196.382 61.392 196.92 61.4811 197.368 61.392C197.458 61.2138 197.503 60.991 197.503 60.7683C197.592 60.3227 197.727 59.4763 197.727 59.3426C197.727 59.2535 197.547 58.8525 197.547 58.7189C197.547 58.3179 198.847 58.3625 198.937 58.3625C199.519 58.3625 200.012 58.2734 200.012 59.0753ZM163.443 58.3625C164.025 58.5852 163.98 58.7189 163.98 59.1198C163.98 59.7436 162.502 65.3571 162.502 67.0055C162.502 67.0946 162.457 67.4955 162.546 67.7183C162.591 67.8519 162.815 68.0747 162.815 68.2083C162.815 68.5202 161.471 68.743 161.471 68.743C161.336 68.743 160.933 68.6539 160.709 68.5202C160.53 68.4311 160.306 68.1638 160.306 68.0747V66.8273C160.306 66.7382 161.695 60.4564 161.695 59.4317C161.695 59.2981 161.56 58.8525 161.56 58.7189C161.56 58.4961 162.278 58.3625 162.367 58.3625H163.443ZM157.93 58.1843C158.334 58.2734 158.513 58.808 158.513 59.0753L158.468 65.268C158.558 65.8917 158.603 66.5154 158.737 67.1391C158.782 67.451 159.185 68.0301 159.185 68.1638C159.185 68.4311 157.572 68.743 157.572 68.743C156.451 68.743 156.407 66.8718 156.407 66.5154V65.4462C156.362 65.4462 156.317 65.3571 156.272 65.3125H153.852C153.718 65.5353 153.583 65.8026 153.494 66.0253C153.314 66.4708 153.045 66.9609 152.911 67.451C152.821 67.6737 152.866 68.0301 152.777 68.342C152.732 68.5202 151.701 68.743 151.387 68.743C151.074 68.743 150.805 68.5648 150.805 68.2083C150.805 67.5846 152.552 64.6888 152.597 64.5997C153.27 63.3968 153.897 62.1939 154.524 60.991C154.793 60.5009 155.107 59.9663 155.331 59.4763C155.466 59.209 155.6 58.6743 155.958 58.4961C156.317 58.3179 156.81 58.2734 157.213 58.1843H157.93ZM168.193 58.2288C168.193 59.2535 167.476 59.4317 166.759 59.4317C166.266 59.4317 165.952 59.3872 165.952 58.8525C165.952 58.7634 165.997 58.0061 165.997 57.917C165.997 57.6051 167.118 57.5605 167.252 57.5605C167.655 57.5605 168.193 57.6051 168.193 58.2288Z" fill="white"/>
</g>
<defs>
<clipPath id="clip0_609_362">
<rect width="224" height="74" fill="white"/>
</clipPath>
</defs>
</svg>
