<svg width="246" height="208" viewBox="0 0 246 208" fill="none" xmlns="http://www.w3.org/2000/svg">
<path d="M126.272 176.095C120.288 174.668 83.6683 150.473 66.8737 136.167C43.2374 116.665 17.047 70.4862 42.456 49.5068C79.0924 18.7765 112.184 74.623 125.184 101.808C129.025 109.786 144.388 103.876 146.161 97.3752C152.07 75.8049 159.752 44.7791 178.956 33.5507C184.866 29.7094 192.843 29.7094 198.752 33.5507C206.138 37.983 207.616 47.7339 206.729 54.2346C205.252 62.8036 202.888 71.0771 199.638 79.0552C194.32 93.8294 181.025 131.061 180.434 162.087C180.138 178.043 188.706 186.021 204.366 186.021C215.888 186.021 223.866 180.998 228.002 170.951C229.775 167.405 230.661 163.564 230.366 159.723C230.366 158.836 229.184 158.541 226.82 159.132C225.343 159.723 223.57 160.018 222.093 160.609C216.479 160.609 214.116 158.245 213.82 153.518C211.752 126.038 226.82 84.9649 229.775 66.9404C233.025 47.7339 233.32 21.7313 217.07 7.84356C200.82 -6.04418 170.388 0.456464 156.502 14.3442C147.047 24.0952 139.956 35.3236 135.229 48.0294C134.047 50.9842 132.866 54.2346 131.979 57.1894C120.161 38.8694 105.093 22.9133 84.706 14.3442C61.3651 4.59324 34.4788 10.503 17.3424 29.1184C-13.6803 62.5081 1.09237 114.514 35.956 148.199C43.9333 155.881 52.797 162.678 62.2515 168.587C65.5015 170.951 69.5678 173.184 73.1132 175.252C153.069 213.538 184.15 207.191 185.206 206.389L126.272 176.095Z" fill="black"/>
<path d="M232.624 14.8574V5.10645H237.056C237.647 5.10645 238.533 5.10645 239.124 5.40195C239.715 5.69745 240.011 5.99295 240.306 6.28845C240.601 6.58395 240.601 7.17484 240.601 7.76584C240.601 8.35684 240.306 8.94775 240.01 9.53875C239.42 10.1297 238.829 10.4252 237.942 10.4252C238.238 10.4252 238.533 10.7206 238.829 11.0161C239.124 11.3116 239.715 11.9026 240.01 12.1981L241.783 14.8574H240.01L238.829 12.789C238.533 12.1981 238.238 11.6071 237.942 11.3116C237.647 11.0161 237.647 10.7206 237.351 10.7206C237.056 10.7206 237.056 10.4252 236.76 10.4252C236.465 10.4252 236.17 10.4252 236.17 10.4252H234.692V14.5619H232.624V14.8574ZM233.806 9.24325H236.465C237.056 9.24325 237.351 9.24324 237.942 8.94774C238.238 8.94774 238.533 8.65235 238.829 8.35685C239.124 8.06135 239.124 7.76585 239.124 7.47035C239.124 7.17485 238.829 6.58395 238.533 6.28845C237.942 5.99295 237.351 5.69745 237.056 5.99295H233.806V9.24325Z" fill="black"/>
<path d="M236.17 18.9942C241.065 18.9942 245.033 15.0254 245.033 10.1297C245.033 5.23394 241.065 1.26514 236.17 1.26514C231.274 1.26514 227.306 5.23394 227.306 10.1297C227.306 15.0254 231.274 18.9942 236.17 18.9942Z" stroke="black" stroke-width="0.5" stroke-miterlimit="10"/>
</svg>
