<svg width="689" height="229" viewBox="0 0 689 229" fill="none" xmlns="http://www.w3.org/2000/svg">
<path d="M251.727 62.3471C257.341 60.2787 263.25 59.0968 269.159 58.8013C276.25 58.8013 279.795 61.4606 279.795 66.7794C279.795 69.7342 279.205 72.689 278.614 75.6439C270.932 105.783 267.091 126.172 266.795 137.105C266.795 141.832 267.977 146.56 270.932 150.401C266.205 153.652 260.886 155.425 255.273 155.425C246.409 155.425 241.682 151.288 241.682 143.014C241.682 135.627 243.75 123.808 247.591 106.965C251.432 90.1226 253.5 78.3032 253.5 70.9161C253.5 67.9613 252.909 65.0065 251.727 62.3471ZM283.045 44.3226C278.909 46.391 274.182 47.5729 269.455 47.8684C263.25 47.8684 260.295 46.0955 260.295 42.8452C260.295 41.0723 260.591 39.2994 260.886 37.8219C261.182 36.049 261.477 34.2761 261.773 32.5032C261.773 31.3213 261.477 30.4348 260.886 29.5484C265.614 27.48 270.636 26.5935 275.955 26.2981C282.75 26.2981 286 28.9574 286 33.9806C285.705 37.5265 284.523 41.0723 283.045 44.3226Z" fill="black"/>
<path d="M354.545 153.356C350.409 154.538 345.682 155.129 341.25 155.425C334.455 155.425 330.909 152.765 330.909 147.151C331.205 142.423 332.091 137.991 333.273 133.559C340.068 103.715 343.318 86.2813 343.318 80.9626C343.318 79.1897 342.727 78.3032 341.545 78.3032C338.591 78.3032 331.795 87.4632 321.159 105.783C310.523 124.103 305.5 137.695 305.5 146.56C305.5 148.924 306.091 150.992 306.682 153.356C302.545 154.538 298.114 155.129 293.682 155.425C286 155.425 282.455 152.47 282.455 146.855C282.455 143.014 283.045 139.173 284.227 135.627C292.5 101.646 296.932 79.4852 296.932 69.1432C296.932 66.7794 296.341 64.4155 295.455 62.0516C300.477 59.9832 305.5 59.0968 310.818 58.8013C317.318 58.8013 320.568 61.7561 320.568 67.6658C320.273 72.3935 319.682 77.1213 318.5 81.849L315.25 96.0323C329.727 70.9161 342.727 58.2103 354.25 58.2103C362.523 58.2103 366.659 63.2336 366.659 72.9845C366.659 76.8258 366.068 80.6671 365.182 84.5084C364.295 88.3497 363.705 92.191 363.409 96.0323C377.886 70.9161 390.886 58.2103 403 58.2103C411.568 58.2103 415.705 62.9381 415.705 72.0981C415.409 77.4168 414.523 82.7355 413.341 88.0542C408.023 114.352 405.364 130.604 405.364 136.514C405.068 141.537 406.545 146.56 409.5 150.697C405.068 153.947 399.75 155.425 394.432 155.72C386.159 155.72 382.023 151.583 382.023 143.31C382.318 134.741 383.205 126.467 384.977 118.194C389.705 96.0323 391.773 83.6219 391.773 81.5536C391.773 79.7806 391.182 78.8942 390 78.8942C387.045 78.8942 380.25 88.0542 369.614 106.374C358.977 124.694 353.955 138.286 353.955 147.151C353.364 149.219 353.659 151.288 354.545 153.356Z" fill="black"/>
<path d="M451.159 156.311C442.295 156.606 434.023 153.356 427.523 147.151C421.614 140.65 418.364 132.081 418.659 122.921C418.659 106.67 424.273 90.7135 434.318 78.0077C444.659 64.4155 457.364 57.3239 471.841 57.3239C480.409 57.0284 488.977 60.2787 494.886 66.4839C500.795 72.9845 504.045 81.5536 503.75 90.4181C503.75 106.67 498.136 122.33 488.091 135.036C477.75 149.515 465.341 156.311 451.159 156.311ZM455.886 142.423C462.386 142.423 467.705 136.514 471.545 124.694C475.682 113.466 477.75 101.646 477.75 89.5316C477.75 77.7123 474.205 71.5071 467.114 71.5071C460.614 71.5071 455.295 77.4168 451.159 88.6452C447.023 99.8735 444.955 111.988 444.955 123.808C444.659 136.218 448.5 142.423 455.886 142.423Z" fill="black"/>
<path d="M511.432 127.944C514.977 138.582 520.886 143.901 529.159 143.901C537.727 143.901 541.864 139.468 541.864 130.604C541.864 125.876 535.068 118.489 521.182 108.147C516.455 103.715 513.795 97.8051 514.091 91.3045C513.5 81.849 517.636 72.689 524.727 66.7793C532.705 60.5742 542.455 57.3239 552.795 57.6193C566.977 57.6193 574.068 60.2787 574.068 65.5974C574.068 70.3251 570.818 75.0529 564.023 80.0761C558.409 72.3935 552.795 68.8477 547.773 68.8477C540.386 68.8477 536.841 72.689 536.841 80.6671C536.841 84.8039 539.205 88.6451 544.227 92.4864L557.818 102.237C562.841 106.67 565.5 113.17 565.205 119.966C565.5 130.308 561.364 140.059 553.386 146.855C544.818 153.652 533.886 157.197 522.659 156.902C506.705 156.902 498.727 153.061 498.727 145.378C498.727 139.173 502.864 133.559 511.432 127.944Z" fill="black"/>
<path d="M629.614 118.489C615.727 143.605 603.023 156.311 591.205 156.311C579.091 156.311 572.886 147.742 572.886 130.604C573.182 113.17 578.205 96.3277 587.659 81.5535C597.409 65.5974 609.227 57.6194 622.818 57.6194C629.023 57.6194 635.227 59.3923 640.545 62.9381C643.205 59.9832 647.045 58.5058 650.886 58.8013C656.5 58.8013 661.818 59.9832 666.841 62.3471C663.591 69.1432 660.341 80.0761 657.386 95.7368C654.727 107.852 653.25 120.262 652.955 132.672C652.955 138.582 654.136 144.492 656.5 150.106C652.659 153.652 647.636 155.425 642.614 155.425C632.864 155.425 627.841 150.106 627.841 139.173C627.841 132.377 628.432 125.285 629.614 118.489ZM636.705 83.3265C631.386 76.2348 626.068 72.3935 620.75 72.3935C614.841 72.3935 609.523 78.5987 605.091 91.3045C600.955 102.237 598.886 113.761 598.591 125.285C598.591 132.081 600.068 135.332 603.318 135.332C606.273 135.332 611.295 129.126 618.682 116.716C625.182 106.079 631.386 94.8503 636.705 83.3265Z" fill="black"/>
<path d="M293.386 207.725C217.75 209.794 143.295 188.223 80.3636 145.674C76.5227 143.014 72.6818 139.764 68.5454 136.218C44.9091 116.716 17.1364 71.8026 42.5454 50.8232C79.1818 20.0929 112.273 75.9394 125.273 103.124C129.114 111.102 144.477 105.192 146.25 98.6916C152.159 77.1213 159.841 46.0955 179.045 34.8671C184.955 31.0258 192.932 31.0258 198.841 34.8671C206.227 39.2994 207.705 49.0503 206.818 55.551C205.341 64.12 202.977 72.3935 199.727 80.3716C194.409 95.1458 181.114 132.377 180.523 163.403C180.227 179.359 188.795 187.337 204.455 187.337C215.977 187.337 223.955 182.314 228.091 172.267C229.864 168.721 230.75 164.88 230.455 161.039C230.455 160.152 229.273 159.857 226.909 160.448C225.432 161.039 223.659 161.334 222.182 161.925C216.568 161.925 214.205 159.561 213.909 154.834C211.841 127.354 226.909 86.2813 229.864 68.2568C233.114 49.0503 233.409 23.0477 217.159 9.16C200.909 -4.72774 170.477 1.7729 156.591 15.6606C147.136 25.4116 140.045 36.64 135.318 49.3458C134.136 52.3006 132.955 55.551 132.068 58.5058C120.25 40.1858 105.182 24.2297 84.7954 15.6606C61.4545 5.90968 34.5682 11.8194 17.4318 30.4348C-13.5909 63.8245 1.18181 115.83 36.0454 149.515C44.0227 157.197 52.8864 163.994 62.3409 169.903C65.5909 172.267 69.1364 174.631 72.6818 176.699C132.068 212.453 200.909 230.773 270.636 228.705C364 226.341 452.932 187.632 518.818 121.148C455.886 175.222 376.114 205.657 293.386 207.725Z" fill="black"/>
<path d="M672.159 49.3458V39.5948H676.591C677.182 39.5948 678.068 39.5948 678.659 39.8903C679.25 40.1858 679.546 40.4813 679.841 40.7768C680.136 41.0723 680.136 41.6632 680.136 42.2542C680.136 42.8452 679.841 43.4361 679.545 44.0271C678.955 44.6181 678.364 44.9136 677.477 44.9136C677.773 44.9136 678.068 45.209 678.364 45.5045C678.659 45.8 679.25 46.391 679.545 46.6865L681.318 49.3458H679.545L678.364 47.2774C678.068 46.6865 677.773 46.0955 677.477 45.8C677.182 45.5045 677.182 45.209 676.886 45.209C676.591 45.209 676.591 44.9136 676.295 44.9136C676 44.9136 675.705 44.9136 675.705 44.9136H674.227V49.0503H672.159V49.3458ZM673.341 43.7316H676C676.591 43.7316 676.886 43.7316 677.477 43.4361C677.773 43.4361 678.068 43.1407 678.364 42.8452C678.659 42.5497 678.659 42.2542 678.659 41.9587C678.659 41.6632 678.364 41.0723 678.068 40.7768C677.477 40.4813 676.886 40.1858 676.591 40.4813H673.341V43.7316Z" fill="black"/>
<path d="M675.705 53.4826C680.6 53.4826 684.568 49.5138 684.568 44.6181C684.568 39.7223 680.6 35.7535 675.705 35.7535C670.809 35.7535 666.841 39.7223 666.841 44.6181C666.841 49.5138 670.809 53.4826 675.705 53.4826Z" stroke="black" stroke-width="0.5" stroke-miterlimit="10"/>
</svg>
