<svg width="18" height="19" viewBox="0 0 18 19" fill="none" xmlns="http://www.w3.org/2000/svg">
<path d="M14.8438 3.32812C16.4844 4.96875 17.5 7.11719 17.5 9.46094C17.5 14.2266 13.5156 18.1328 8.71094 18.1328C7.26562 18.1328 5.85938 17.7422 4.57031 17.0781L0 18.25L1.21094 13.7578C0.46875 12.4688 0.0390625 10.9844 0.0390625 9.42188C0.0390625 4.65625 3.94531 0.75 8.71094 0.75C11.0547 0.75 13.2422 1.6875 14.8438 3.32812ZM8.71094 16.6484C12.6953 16.6484 16.0156 13.4062 16.0156 9.46094C16.0156 7.50781 15.1953 5.71094 13.8281 4.34375C12.4609 2.97656 10.6641 2.23438 8.75 2.23438C4.76562 2.23438 1.52344 5.47656 1.52344 9.42188C1.52344 10.7891 1.91406 12.1172 2.61719 13.2891L2.8125 13.5625L2.07031 16.2188L4.80469 15.4766L5.03906 15.6328C6.17188 16.2969 7.42188 16.6484 8.71094 16.6484ZM12.6953 11.2578C12.8906 11.375 13.0469 11.4141 13.0859 11.5312C13.1641 11.6094 13.1641 12.0391 12.9688 12.5469C12.7734 13.0547 11.9141 13.5234 11.5234 13.5625C10.8203 13.6797 10.2734 13.6406 8.90625 13.0156C6.71875 12.0781 5.3125 9.89062 5.19531 9.77344C5.07812 9.61719 4.33594 8.60156 4.33594 7.50781C4.33594 6.45312 4.88281 5.94531 5.07812 5.71094C5.27344 5.47656 5.50781 5.4375 5.66406 5.4375C5.78125 5.4375 5.9375 5.4375 6.05469 5.4375C6.21094 5.4375 6.36719 5.39844 6.5625 5.82812C6.71875 6.25781 7.1875 7.3125 7.22656 7.42969C7.26562 7.54688 7.30469 7.66406 7.22656 7.82031C6.83594 8.64062 6.36719 8.60156 6.60156 8.99219C7.46094 10.4375 8.28125 10.9453 9.57031 11.5703C9.76562 11.6875 9.88281 11.6484 10.0391 11.5312C10.1562 11.375 10.5859 10.8672 10.7031 10.6719C10.8594 10.4375 11.0156 10.4766 11.2109 10.5547C11.4062 10.6328 12.4609 11.1406 12.6953 11.2578Z" fill="white"/>
</svg>
