<svg width="367" height="386" viewBox="0 0 367 386" fill="none" xmlns="http://www.w3.org/2000/svg">
<path d="M269.444 289.5C269.444 309.464 231.631 325.688 185.007 325.688C138.382 325.688 100.569 309.464 100.569 289.5C100.569 272.01 129.642 257.353 168.238 254.037L185.007 283.589L201.775 254.037C240.372 257.353 269.444 272.01 269.444 289.5Z" stroke="#F30014" stroke-width="15" stroke-linecap="round" stroke-linejoin="round"/>
<path d="M168.238 254.037L185.007 283.589L201.775 254.037L215.829 229.188L247.734 172.977C254.083 161.473 257.403 148.543 257.382 135.403C257.56 125.72 255.83 116.097 252.289 107.083C248.748 98.0691 243.467 89.8408 236.746 82.868C230.025 75.8952 221.997 70.3144 213.12 66.4443C204.242 62.5743 194.689 60.4907 185.007 60.3125C175.324 60.4907 165.771 62.5743 156.894 66.4443C148.016 70.3144 139.988 75.8952 133.267 82.868C126.546 89.8408 121.265 98.0691 117.724 107.083C114.184 116.097 112.453 125.72 112.632 135.403C112.573 148.556 115.919 161.501 122.344 172.977L154.184 229.188L168.238 254.037Z" fill="#F30014" stroke="#F30014" stroke-width="15" stroke-linecap="round" stroke-linejoin="round"/>
<path d="M185.047 163.108C201.915 163.108 215.589 149.434 215.589 132.566C215.589 115.698 201.915 102.024 185.047 102.024C168.179 102.024 154.505 115.698 154.505 132.566C154.505 149.434 168.179 163.108 185.047 163.108Z" fill="#F30014"/>
</svg>
