<svg width="386" height="386" viewBox="0 0 386 386" fill="none" xmlns="http://www.w3.org/2000/svg">
<path d="M288.444 289.5C288.444 309.464 250.631 325.688 204.007 325.688C157.382 325.688 119.569 309.464 119.569 289.5C119.569 272.01 148.642 257.353 187.238 254.037L204.007 283.589L220.775 254.037C259.372 257.353 288.444 272.01 288.444 289.5Z" stroke="white" stroke-width="15" stroke-linecap="round" stroke-linejoin="round"/>
<path d="M187.238 254.037L204.007 283.589L220.775 254.037L234.829 229.188L266.734 172.977C273.083 161.473 276.403 148.543 276.382 135.403C276.56 125.72 274.83 116.097 271.289 107.083C267.748 98.0691 262.467 89.8408 255.746 82.868C249.025 75.8952 240.997 70.3144 232.12 66.4443C223.242 62.5743 213.689 60.4907 204.007 60.3125C194.324 60.4907 184.771 62.5743 175.894 66.4443C167.016 70.3144 158.988 75.8952 152.267 82.868C145.546 89.8408 140.265 98.0691 136.724 107.083C133.184 116.097 131.453 125.72 131.632 135.403C131.573 148.556 134.919 161.501 141.344 172.977L173.184 229.188L187.238 254.037Z" fill="white" stroke="white" stroke-width="15" stroke-linecap="round" stroke-linejoin="round"/>
<path d="M204.047 163.108C220.915 163.108 234.589 149.434 234.589 132.566C234.589 115.698 220.915 102.024 204.047 102.024C187.179 102.024 173.505 115.698 173.505 132.566C173.505 149.434 187.179 163.108 204.047 163.108Z" fill="white"/>
</svg>
