<svg width="224" height="74" viewBox="0 0 224 74" fill="none" xmlns="http://www.w3.org/2000/svg">
<g clip-path="url(#clip0_1_131)">
<path fill-rule="evenodd" clip-rule="evenodd" d="M64.8483 0C65.6102 0.089103 66.5961 0.267309 67.358 0.490066C67.9854 0.712824 68.8369 1.02468 69.5988 1.4702C71.0777 2.31668 72.9151 4.45515 73.5874 5.83624C74.1251 6.86093 74.5733 7.97471 74.8422 9.04395C74.887 9.1776 75.5592 12.2962 75.5592 13.2763V17.3305C75.4248 18.8007 75.2904 20.2709 75.0215 21.7411C74.5285 24.7261 73.5874 27.8447 72.7807 30.9187C71.7051 34.9729 70.7192 39.1162 70.1814 43.2149C70.0469 44.3733 69.8228 46.6899 69.8228 46.8236V49.4967C69.8228 51.5015 71.0329 52.1698 72.3773 52.1698C72.5118 52.1698 74.6181 51.5906 74.7526 51.5906C75.3352 51.5906 75.3352 52.1252 75.3352 52.4816C75.3352 53.5063 74.9766 54.531 74.5285 55.5557C72.6462 59.7881 69.5988 60.59 66.5961 60.59C63.952 60.59 60.546 59.9217 59.2912 56.0012C59.2912 55.9121 58.9326 54.3974 58.9326 54.13V51.3233C59.0223 48.7393 59.5152 46.1553 59.9634 43.5713C61.2182 37.0223 63.459 30.4732 65.8342 23.9241C66.1479 23.0331 66.4617 22.0975 66.6857 21.2065C67.0443 19.9145 67.2683 18.578 67.5372 17.3305V15.9494C67.3132 14.3456 66.7306 12.0289 64.669 10.9151C64.445 10.826 64.2657 10.6478 64.0864 10.6033C63.1005 10.2914 62.5179 10.1132 61.6664 10.1132C58.3948 10.1132 55.1681 13.009 53.017 16.8405C50.3728 21.4738 49.1628 26.3299 47.8632 31.0969C47.7287 31.5424 47.6839 31.988 47.3702 32.4335C46.1602 33.9482 44.4572 34.4828 43.1127 34.4828C42.4405 34.4828 42.1716 34.5274 41.4545 34.0373C41.0064 33.77 40.7823 33.28 40.603 32.9235C40.4237 32.5226 40.1997 32.1662 40.0204 31.7652C39.0793 29.894 37.9589 27.9338 36.7937 26.0626C34.3736 22.1866 30.385 16.885 26.0379 14.6129C24.2453 13.6773 22.5423 13.2763 20.8841 13.2763C16.9403 13.2763 13.0414 15.9049 11.5624 18.7562C10.6213 20.5382 10.4869 21.7411 10.4869 23.4341C10.4869 25.5725 11.1591 28.2011 12.0106 30.295C13.624 34.1264 16.4025 38.4925 20.1671 42.1011C23.9316 45.7098 27.965 48.2938 31.8191 50.5659C33.2981 51.457 34.777 52.2589 36.2559 53.0608C38.5863 54.3528 41.0512 55.5557 43.4712 56.6695C57.4985 62.9958 71.6155 66.1589 85.6876 67.05L88.3317 67.1836H95.3678L100.253 67.0054C111.591 66.248 123.198 63.8423 134.581 59.6099C137.046 58.6743 139.78 57.5605 142.29 56.4022C144.62 55.3329 147.085 54.0855 149.505 52.7935C150.67 52.1698 151.836 51.457 153.09 50.7441C155.331 49.4076 157.796 47.8483 160.171 46.2444C162.95 44.3733 165.863 42.1011 168.731 39.7399C168.776 39.7399 168.821 39.6954 168.91 39.7399C167.297 41.5665 165.46 43.0367 163.757 44.6406C163.577 44.8188 163.308 44.9079 163.129 45.0861C159.185 48.6502 153.449 52.7044 150.626 54.5756C146.054 57.6051 141.304 60.189 136.688 62.4166C134.94 63.2631 133.147 64.065 131.444 64.7778C130.279 65.2234 129.204 65.758 128.083 66.1589C124.408 67.4955 120.689 68.7875 117.103 69.7676C109.305 71.9506 101.283 73.1981 93.5303 73.8218L90.1692 74L79.1445 73.9555C71.7051 73.5545 64.0416 72.4407 56.647 70.6586C49.2076 68.832 41.589 66.1144 34.1496 62.6394C26.3068 58.9416 16.4474 52.8826 11.7865 48.3384C4.21267 40.9428 0.806682 33.3245 0.0448157 25.9735L0 22.2757C0.0448157 20.8055 0.31371 19.3353 0.672235 17.8651C0.806682 17.5087 0.941129 17.1078 1.03076 16.7514C2.06152 13.0981 5.64678 8.06382 9.85945 5.74714C10.3524 5.47983 10.8902 5.16797 11.3832 4.94521C11.9658 4.67791 12.6828 4.36604 13.3103 4.14329C13.9825 3.92053 14.9236 3.65322 15.6407 3.47502C15.7303 3.47502 18.0607 3.0295 18.733 3.0295H21.2426C21.8252 3.07405 22.363 3.1186 22.9904 3.20771C24.8727 3.47502 26.7998 4.14329 28.7717 5.03432C34.0151 7.48465 39.5723 12.8754 42.8438 18.3107H43.0231C44.8157 13.3209 46.9668 7.84106 52.524 3.34136C53.0618 2.89585 53.734 2.53943 54.3166 2.22757C56.647 0.980132 59.1119 0.222757 61.5319 0H64.8483Z" fill="#FFCC00"/>
<path fill-rule="evenodd" clip-rule="evenodd" d="M204.584 23.5232C205.032 23.7014 205.525 24.0133 206.018 24.4142C206.152 24.5479 208.079 26.3745 208.079 26.6864C208.079 26.82 207.945 26.9537 207.9 27.0428C206.735 29.5822 205.256 32.389 203.777 34.9729C203.239 35.864 198.937 43.6159 197.189 43.6159C196.024 43.6159 195.8 41.5666 195.8 41.0765V39.5617C195.71 37.5124 197.951 23.2113 202.97 23.2113C203.598 23.2113 204.001 23.3005 204.584 23.5232ZM156.093 28.3348L156.004 31.4088C155.69 33.9483 155.197 36.7104 154.345 39.339C153.584 41.5666 152.194 45.7989 148.968 45.7989C146.234 45.7989 145.696 43.3932 145.472 40.9874L145.517 37.6906C145.651 36.6659 145.741 35.5967 145.92 34.5274C146.01 34.0374 146.144 33.5027 146.189 33.0127C146.592 31.7652 148.071 23.0331 152.687 23.0331C155.69 23.0331 155.959 26.33 156.093 28.3348ZM91.4242 21.3402C91.4242 21.4738 91.3346 22.4094 91.2449 22.8995C90.8864 24.5924 90.3486 26.2854 89.9901 28.0675C89.1386 32.0771 87.2115 39.339 87.2115 44.0169C87.2115 44.9079 87.1667 45.398 87.4804 46.3781C87.57 46.7345 87.7045 47.0909 87.8838 47.4474C88.063 47.8038 88.5112 48.3829 88.5112 48.472C88.5112 48.6948 87.0771 49.3185 86.5393 49.5413C86.1808 49.6304 85.8671 49.8531 85.5085 49.8977C84.8363 50.0313 84.0744 50.2095 83.4022 50.2095C82.1474 50.2095 79.8618 49.8086 79.2791 47.9374C79.1895 47.581 79.0103 46.8682 79.0103 46.7791V44.997C79.1447 43.6605 79.324 42.2794 79.548 40.8983C80.1306 37.2896 81.1614 33.6809 81.8785 30.0723C82.1025 28.9585 82.3266 27.8002 82.5059 26.6418C82.5507 26.3745 82.9092 23.4341 82.9092 22.6322C82.9092 22.4985 82.8196 21.9639 82.7748 21.652C82.73 21.2511 82.6403 20.8056 82.4611 20.4492C82.4162 20.3155 82.2818 20.0927 82.2818 19.9591C82.2818 19.6027 83.8952 19.2463 84.2537 19.1572C85.4637 18.8008 86.6737 18.6671 87.8838 18.6671C89.5868 18.6671 91.4242 19.0681 91.4242 21.3402ZM204.763 18.3998C205.211 18.4443 205.659 18.4889 206.108 18.578C206.735 18.7116 207.407 18.9344 208.035 19.2017C208.483 19.3799 209.334 19.9591 209.469 19.9591C209.558 19.9591 210.051 19.4245 210.41 19.2463C211.037 18.8899 212.247 18.6225 213.009 18.6225C213.905 18.6225 216.505 19.1126 216.998 19.3799C217.132 19.469 218.073 19.7363 218.073 19.9591C218.073 20.0482 217.67 20.6719 217.536 21.0729C216.908 22.5876 216.415 24.1469 216.057 25.7508C214.936 30.2505 214.04 34.9729 213.637 39.6063C213.592 40.1409 213.502 41.2547 213.502 41.3884V43.7941C213.592 44.6852 213.681 45.5762 213.905 46.4227C214.04 46.9573 214.623 48.2938 214.623 48.3829C214.623 48.5166 214.219 48.7393 214.04 48.9176C212.83 49.8531 211.172 50.2095 209.962 50.2095C207.811 50.2095 205.704 49.3185 205.301 46.2445C205.256 45.9772 205.211 45.4425 205.211 45.3534V43.3041L205.794 38.6262C205.794 38.5816 205.794 38.4925 205.749 38.448C203.195 42.8586 198.623 50.4769 193.245 50.4769C190.153 50.4769 188.047 48.8284 187.464 44.7297C187.419 44.3733 187.33 43.705 187.33 43.6159V40.3191C187.509 38.938 187.599 37.3342 187.957 35.9976C189.346 29.8495 193.514 22.3203 198.22 19.7809C198.847 19.4245 199.475 19.1572 200.102 18.9344C200.909 18.6671 201.671 18.4889 202.522 18.3998H204.763ZM182.714 18.3998C183.7 18.5334 187.733 18.6225 187.733 21.0729C187.733 21.6075 187.733 21.4738 187.509 22.2312C187.419 22.6767 186.971 23.2559 186.613 23.746C186.478 23.9242 184.73 25.6617 184.462 25.6617C184.237 25.6617 181.907 22.0085 179.039 22.0085C176.574 22.0085 175.588 23.5232 175.588 25.6617C175.588 28.2902 177.874 29.404 180.742 31.5425C181.504 32.1662 182.579 32.7454 183.252 33.7255C184.551 35.5076 184.91 36.8887 184.91 38.5816C184.91 45.0861 180.383 49.0512 174.468 50.165C173.706 50.2986 172.272 50.4769 172.137 50.4769H169.538C168.193 50.3432 166.67 50.165 165.325 49.6749C164.698 49.4522 163.309 48.472 163.174 47.7592C163.174 47.6701 163.084 47.5365 163.084 47.4474V45.9326C163.219 44.997 164.07 44.1951 165.012 43.3932C165.684 42.814 166.446 42.1012 167.163 41.4329C167.208 41.4329 167.297 41.522 167.297 41.5666C167.521 42.1012 167.745 42.6803 168.014 43.215C169.135 45.5316 171.241 46.4227 172.989 46.4227C174.737 46.4227 176.798 45.7098 177.112 42.9922V41.7002C176.933 41.2101 176.664 40.631 176.26 40.1409C174.602 37.9133 172.272 36.3986 170.255 34.7056C169 33.7255 168.014 31.2306 168.014 29.8495V28.6466C168.104 28.0229 168.193 27.3546 168.283 26.6864C168.597 24.1024 171.599 20.5828 174.423 19.5581C174.647 19.469 174.871 19.3354 175.14 19.2463C176.484 18.7116 177.784 18.5334 179.218 18.3998H182.714ZM155.511 18.3998C162.323 19.2017 164.743 24.5479 164.743 29.1812C164.743 29.2703 164.743 29.4931 164.698 30.4287C164.608 31.6316 164.384 33.1018 164.115 34.3492C163.936 35.2848 163.622 36.2649 163.264 37.2005C162.995 37.9579 162.636 38.7598 162.233 39.5617C158.334 46.9127 153.359 50.4769 147.444 50.4769C143.634 50.4769 139.467 49.0512 137.495 43.9723C137.315 43.4823 136.867 41.8339 136.867 41.0765V37.8242C136.912 37.2896 136.957 36.755 137.047 36.2204C137.674 30.5178 142.245 22.0976 149.057 19.3354C149.64 19.1126 150.357 18.8453 151.029 18.7116C151.656 18.578 152.329 18.4889 152.956 18.3998H155.511ZM116.566 18.3998C119.389 18.8008 119.748 21.4293 119.748 23.2113C119.748 25.4835 118.672 29.2258 118.672 30.1614C118.672 30.2505 118.672 30.295 118.762 30.3841C121.003 26.5973 124.946 20.1818 129.697 18.6225C130.638 18.3107 130.862 18.3998 131.579 18.3998C131.713 18.3998 132.206 18.3552 132.52 18.3998C135.254 18.8899 135.702 21.1174 135.702 22.8995C135.702 24.9489 134.358 30.6069 134.223 31.4534C133.954 32.8345 132.296 41.1656 132.296 43.9278C132.296 45.398 132.117 44.8634 132.744 46.9573C132.879 47.4474 133.596 48.3829 133.596 48.472C133.596 48.7393 132.251 49.274 131.893 49.4522C130.772 49.9422 129.652 50.2095 128.532 50.2095C125.574 50.2095 124.543 48.4275 124.543 45.9326C124.543 45.8435 124.543 45.6207 124.588 44.3288C124.722 43.1259 124.857 41.8784 125.036 40.6755C125.798 35.9531 127.008 31.1415 127.77 26.4191V25.528C127.501 25.1271 127.501 25.1716 127.232 25.1716C126.47 25.1716 125.574 26.4191 125.036 27.1319C123.781 28.7357 122.661 30.6069 121.675 32.2553C121.227 32.9236 120.823 33.6364 120.42 34.3938C118.583 37.5124 115.49 43.5268 115.49 47.2691V47.9374C115.58 48.4275 115.804 49.274 115.804 49.3631C115.804 49.8086 113.339 50.1204 112.622 50.165C111.771 50.165 111.546 50.2095 111.457 50.2095C109.888 50.2095 108.051 49.6749 108.051 47.5365C108.051 45.2643 112.084 29.5377 112.084 25.9735C112.084 25.5726 111.995 25.1716 111.502 25.1716C110.829 25.1716 109.709 26.6418 109.35 27.0873C107.961 28.8694 106.975 30.6514 105.855 32.4335C104.645 34.3492 103.524 36.354 102.538 38.4034C101.284 40.9428 99.7599 44.4624 99.7599 47.3137C99.7599 47.4028 99.7151 47.7592 99.7599 47.982C99.8047 48.4275 100.074 49.274 100.074 49.3631C100.074 49.8086 97.6984 50.1204 96.9365 50.165C96.085 50.165 95.9058 50.2095 95.8161 50.2095C94.875 50.2095 93.1272 50.0313 92.455 48.8284C92.3205 48.5166 92.1412 48.0265 92.1412 47.9374V46.4672C92.455 44.0614 93.2168 41.4329 93.7546 39.0717C94.5613 35.7303 95.3232 32.389 95.9058 29.0476C96.2643 27.1764 96.5332 25.2162 96.7573 23.345C96.7573 22.1867 96.8021 22.1867 96.8021 22.053C96.8021 20.7165 96.3539 19.9591 96.3539 19.8254C96.3539 19.6027 97.3399 19.3799 97.4743 19.3354C98.1465 19.1572 98.8188 18.8899 99.5807 18.8008C100.163 18.7116 101.328 18.6225 101.418 18.6225C103.569 18.6225 104.645 19.6027 104.645 21.6966C104.645 24.1024 103.345 28.6466 102.987 30.1614C102.987 30.1614 102.987 30.2059 103.031 30.295C103.121 30.2059 103.256 30.0277 103.345 29.8495C103.838 29.0476 104.331 28.1566 104.824 27.3992C106.706 24.4142 110.202 19.9145 113.608 18.7116C113.966 18.578 114.37 18.4889 114.773 18.3998H115.669C115.759 18.3998 116.252 18.3552 116.566 18.3998ZM93.3961 10.6033C93.3961 11.7171 92.9927 12.8309 92.455 13.9446C92.3653 14.1228 92.0516 14.1674 91.8724 14.2565C91.2898 14.5238 90.6623 14.7466 90.0349 14.8802C89.1386 15.103 88.6904 15.1475 87.9734 15.1475C87.1219 15.1475 86.8978 15.1921 85.9119 14.7911C85.643 14.702 85.0156 14.212 85.0156 13.811V12.7863L85.4189 10.2023C85.4189 9.6677 85.1948 9.48949 85.1948 9.22219C85.1948 8.95488 86.5393 8.64302 86.853 8.55391C88.4664 8.1084 88.7353 8.1084 90.0349 8.1084C91.6035 8.1084 93.3961 8.37571 93.3961 10.6033Z" fill="#FFCC00"/>
<path fill-rule="evenodd" clip-rule="evenodd" d="M221.838 13.2763C221.838 13.5436 221.614 13.7664 221.345 13.7664H220.314V12.8754H220.852C221.166 12.8754 221.838 12.7863 221.838 13.2763ZM222.376 13.2763C222.376 13.6773 222.107 14.0337 221.659 14.2119C221.972 14.6129 222.331 15.1029 222.6 15.5485C222.51 15.6376 222.465 15.6821 222.331 15.6821C221.883 15.6821 221.39 14.5238 221.166 14.3456C220.942 14.2119 220.583 14.2119 220.449 14.2119C220.359 14.2119 220.314 14.2565 220.269 14.301V15.5039C220.224 15.593 220.135 15.6821 220 15.6821C219.911 15.6821 219.866 15.6376 219.821 15.593V12.4299H220.807C221.434 12.4299 222.376 12.2516 222.376 13.2763ZM223.586 14.0337C223.586 15.4594 222.42 16.6177 220.986 16.6177C219.507 16.6177 218.387 15.4594 218.387 14.0337C218.387 12.519 219.552 11.4497 220.986 11.4497C222.51 11.4497 223.586 12.6972 223.586 14.0337ZM223.855 12.8308C224.034 13.1872 223.989 13.6327 223.989 14.0337C223.989 14.1228 224.034 14.6129 223.944 14.9247C223.541 16.5286 222.107 17.1523 220.986 17.1523C220.852 17.1523 220.449 17.1078 220.224 17.0632C220.045 17.0632 219.911 16.9296 219.731 16.885C219.104 16.7959 217.894 15.3257 217.894 14.7465V13.3209C218.656 11.3161 219.642 10.9597 220.942 10.9597C222.107 10.9597 223.182 11.2715 223.855 12.8308Z" fill="#FFCC00"/>
<path fill-rule="evenodd" clip-rule="evenodd" d="M206.869 63.1294C206.869 63.7086 206.511 67.4955 205.032 67.4955C204.404 67.4955 204.18 66.7826 204.18 66.4262V65.5352C204.135 64.9115 204.718 61.5701 206.018 61.5701C206.914 61.5701 206.869 62.8176 206.869 63.1294ZM185.044 62.1938C185.044 62.8621 184.73 63.8868 183.565 64.0204C183.475 64.0204 183.386 64.1096 183.251 64.1096H182.893V63.8868C182.982 63.6195 183.431 61.4365 184.506 61.4365C184.954 61.4365 185.044 61.882 185.044 62.1938ZM167.655 61.1246C167.655 61.2137 167.297 62.5948 167.162 63.3076C167.073 63.7086 166.535 66.2035 166.535 67.0499C166.535 67.6291 166.894 68.0746 166.894 68.2083C166.894 68.4756 165.549 68.7429 165.504 68.7429C165.28 68.7429 164.384 68.5201 164.384 68.0301V66.7381C164.653 65.4461 164.966 64.1096 165.191 62.8176C165.28 62.372 165.37 61.6147 165.37 61.481C165.37 61.3919 165.235 60.9018 165.235 60.8127C165.235 60.4118 166.535 60.3672 166.625 60.3672C167.118 60.3672 167.655 60.3672 167.655 61.1246ZM215.653 61.0355C215.653 61.3919 215.07 62.1938 214.801 62.1938C214.533 62.1938 214.084 61.2583 213.278 61.2583C212.606 61.2583 212.426 61.882 212.426 62.1938C212.426 63.4413 214.936 63.664 214.936 65.6243C214.936 67.9855 212.695 68.7875 211.171 68.7875C210.768 68.7875 209.424 68.6538 209.2 68.2083C209.11 68.0746 209.155 67.8519 209.155 67.7628C209.155 67.1391 209.289 67.0054 210.185 66.3371C210.634 67.1836 211.037 67.6737 211.754 67.6737C212.337 67.6737 212.83 67.2727 212.83 66.649C212.83 66.5153 212.785 66.2926 212.65 66.1589C212.157 65.357 211.037 64.8669 210.634 64.1541C210.544 64.0204 210.41 63.3522 210.41 63.1294C210.41 60.9464 212.337 60.2781 213.86 60.2781C214.309 60.2781 215.653 60.2336 215.653 61.0355ZM209.244 63.174C209.244 65.1788 207.631 68.7875 204.673 68.7875C204.539 68.7875 204.091 68.7429 203.866 68.6984C203.015 68.6093 201.895 67.4064 201.895 66.649V64.956C202.388 62.3275 204.135 60.2781 206.421 60.2781C208.393 60.2781 209.244 61.6592 209.244 63.174ZM195.083 61.5701C195.083 63.174 194.186 65.4015 194.186 67.0499C194.186 67.2727 194.321 67.941 194.545 68.2083C194.41 68.4756 193.38 68.7429 193.156 68.7429C192.438 68.7429 191.99 68.2974 191.99 67.5846C191.99 66.1589 192.842 63.3967 192.842 62.4166C192.842 62.2829 192.842 62.0602 192.663 62.0602C192.394 62.0602 191.99 62.6839 191.901 62.8621C191.184 63.8868 190.467 65.1342 190.063 66.2926C189.481 67.9855 189.75 67.1391 189.75 68.3419C189.75 68.6093 188.674 68.7429 188.584 68.7429C188.405 68.7429 187.554 68.5647 187.554 68.2083V67.4064C187.733 66.3817 188.764 62.8176 188.764 61.3474C188.764 61.2137 188.674 60.9018 188.674 60.7682C188.674 60.4563 189.884 60.3227 189.974 60.3227C190.108 60.3227 190.422 60.3227 190.646 60.4563C190.735 60.5009 190.96 60.6791 190.96 60.8127V61.5701C190.87 62.0156 190.78 62.4166 190.691 62.8621C190.691 62.8621 190.646 62.9067 190.78 62.9067C190.87 62.9067 192.035 60.2781 193.783 60.2781C194.724 60.2781 195.083 60.7682 195.083 61.5701ZM187.15 61.7483C187.15 62.1493 187.016 62.6394 186.836 63.0849C186.612 63.7086 185.761 64.3769 185.223 64.6442C184.73 64.9115 184.237 65.0451 183.744 65.1342C183.431 65.1788 183.072 65.2233 182.758 65.2679C182.579 65.4461 182.624 65.7134 182.624 65.8916C182.624 66.8272 182.848 67.4955 183.834 67.4955C185.044 67.4955 186.164 66.4262 186.344 66.4262C186.568 66.4262 186.612 66.9163 186.612 66.9163C186.612 68.3419 183.744 68.7875 183.027 68.7875C182.131 68.7875 180.966 68.6538 180.383 67.4064C180.338 67.2282 180.249 66.9608 180.249 66.8717V65.6243C180.697 62.6394 182.669 60.2781 185.313 60.2781C186.299 60.2781 187.15 60.5454 187.15 61.7483ZM175.498 61.5701C175.498 61.6592 175.364 62.5948 175.229 63.174L175.319 63.2631C175.991 62.0156 177.246 60.2781 178.546 60.2781C179.307 60.2781 179.576 60.59 179.711 61.481L178.814 67.0054C178.814 67.3173 178.859 67.6291 178.949 67.8964C178.994 67.9855 179.128 68.0746 179.128 68.1637C179.128 68.5201 177.829 68.7429 177.829 68.7429C177.515 68.7429 176.708 68.4756 176.708 67.8964V67.0499L177.56 62.3275C177.56 62.2829 177.515 62.1938 177.47 62.1047C176.619 62.5948 176.17 63.6195 175.677 64.466C175.05 65.4461 174.557 66.4708 174.378 67.54C174.333 67.7628 174.378 68.1192 174.378 68.431C174.198 68.5647 173.616 68.7429 173.347 68.7429C173.078 68.7429 172.182 68.5647 172.361 67.9855L173.437 62.3275C173.347 62.1493 173.347 62.1493 173.257 62.1493C173.033 62.1493 172.451 62.9958 172.406 63.0403C171.599 64.2432 170.927 65.4461 170.479 66.649C170.344 67.0054 170.21 67.4955 170.21 67.8964C170.21 68.0301 170.3 68.2528 170.3 68.3865C170.3 68.6538 169.134 68.7429 169.134 68.7429C169.045 68.7429 168.193 68.6093 168.193 68.2528V67.3173C168.328 66.7381 169.403 62.773 169.403 61.2583C169.403 61.1692 169.314 60.9018 169.314 60.8127C169.314 60.6791 169.314 60.59 169.448 60.5454C169.807 60.4118 170.524 60.3227 170.613 60.3227C171.196 60.3227 171.51 60.6345 171.51 61.1246C171.51 61.2583 171.196 62.773 171.196 62.8621C171.196 62.9958 171.196 63.0403 171.241 63.0849C172.092 61.7929 173.033 60.2781 174.378 60.2781C175.184 60.2781 175.498 60.9018 175.498 61.5701ZM156.362 64.065H154.48C154.48 64.065 154.435 64.0204 154.435 63.9759L156.362 59.9217V64.065ZM200.012 59.0752C200.012 59.4762 199.519 61.2583 199.519 61.3474C199.519 61.4365 199.564 61.3919 199.564 61.481H200.505C200.909 61.4365 201.491 61.3028 201.626 61.3028C201.715 61.3028 201.895 61.3474 201.895 61.481C201.895 61.6147 201.85 61.6592 201.805 61.7038C201.76 62.3275 200.819 62.773 200.371 62.773H199.34C199.026 63.2631 198.713 65.357 198.713 66.1589C198.713 66.5599 198.713 67.1836 199.34 67.1836C199.699 67.1836 200.729 66.6044 200.774 66.6044C200.909 66.6044 201.043 67.1836 201.043 67.2727C201.043 68.3419 199.116 68.7875 198.578 68.7875C197.906 68.7875 196.741 68.5201 196.606 67.4064C196.606 67.3173 196.562 67.2282 196.562 67.1391V66.3371C196.606 66.0698 196.651 65.8025 196.651 65.5352C196.786 64.6887 197.099 63.0849 197.099 62.9958C197.099 62.8176 196.92 62.773 196.83 62.773C196.696 62.773 196.293 62.773 196.024 62.8621C195.934 62.8621 195.844 62.9958 195.71 62.9958C195.441 62.9958 195.531 62.6394 195.531 62.5503C195.531 62.1493 195.351 61.9265 195.979 61.6147C196.382 61.3919 196.92 61.481 197.368 61.3919C197.458 61.2137 197.503 60.9909 197.503 60.7682C197.592 60.3227 197.727 59.4762 197.727 59.3425C197.727 59.2534 197.547 58.8525 197.547 58.7188C197.547 58.3179 198.847 58.3624 198.937 58.3624C199.519 58.3624 200.012 58.2733 200.012 59.0752ZM163.443 58.3624C164.025 58.5852 163.98 58.7188 163.98 59.1198C163.98 59.7435 162.502 65.357 162.502 67.0054C162.502 67.0945 162.457 67.4955 162.546 67.7182C162.591 67.8519 162.815 68.0746 162.815 68.2083C162.815 68.5201 161.471 68.7429 161.471 68.7429C161.336 68.7429 160.933 68.6538 160.709 68.5201C160.53 68.431 160.306 68.1637 160.306 68.0746V66.8272C160.306 66.7381 161.695 60.4563 161.695 59.4316C161.695 59.298 161.56 58.8525 161.56 58.7188C161.56 58.4961 162.278 58.3624 162.367 58.3624H163.443ZM157.93 58.1842C158.334 58.2733 158.513 58.8079 158.513 59.0752L158.468 65.2679C158.558 65.8916 158.603 66.5153 158.737 67.1391C158.782 67.4509 159.185 68.0301 159.185 68.1637C159.185 68.431 157.572 68.7429 157.572 68.7429C156.451 68.7429 156.407 66.8717 156.407 66.5153V65.4461C156.362 65.4461 156.317 65.357 156.272 65.3124H153.852C153.718 65.5352 153.583 65.8025 153.494 66.0253C153.314 66.4708 153.045 66.9608 152.911 67.4509C152.821 67.6737 152.866 68.0301 152.777 68.3419C152.732 68.5201 151.701 68.7429 151.387 68.7429C151.074 68.7429 150.805 68.5647 150.805 68.2083C150.805 67.5846 152.552 64.6887 152.597 64.5996C153.27 63.3967 153.897 62.1938 154.524 60.9909C154.793 60.5009 155.107 59.9663 155.331 59.4762C155.466 59.2089 155.6 58.6743 155.958 58.4961C156.317 58.3179 156.81 58.2733 157.213 58.1842H157.93ZM168.193 58.2288C168.193 59.2534 167.476 59.4316 166.759 59.4316C166.266 59.4316 165.952 59.3871 165.952 58.8525C165.952 58.7634 165.997 58.006 165.997 57.9169C165.997 57.605 167.118 57.5605 167.252 57.5605C167.655 57.5605 168.193 57.605 168.193 58.2288Z" fill="#FFCC00"/>
</g>
<defs>
<clipPath id="clip0_1_131">
<rect width="224" height="74" fill="white"/>
</clipPath>
</defs>
</svg>
