<svg width="224" height="74" viewBox="0 0 224 74" fill="none" xmlns="http://www.w3.org/2000/svg">
<g clip-path="url(#clip0_0_279)">
<path fill-rule="evenodd" clip-rule="evenodd" d="M64.8483 0C65.6102 0.089103 66.5961 0.267309 67.358 0.490066C67.9854 0.712824 68.8369 1.02468 69.5988 1.4702C71.0777 2.31668 72.9151 4.45515 73.5874 5.83624C74.1251 6.86093 74.5733 7.97471 74.8422 9.04395C74.887 9.1776 75.5592 12.2962 75.5592 13.2763V17.3305C75.4248 18.8007 75.2904 20.2709 75.0215 21.7411C74.5285 24.7261 73.5874 27.8447 72.7807 30.9187C71.7051 34.9729 70.7192 39.1162 70.1814 43.2149C70.0469 44.3733 69.8228 46.6899 69.8228 46.8236V49.4967C69.8228 51.5015 71.0329 52.1698 72.3773 52.1698C72.5118 52.1698 74.6181 51.5906 74.7526 51.5906C75.3352 51.5906 75.3352 52.1252 75.3352 52.4816C75.3352 53.5063 74.9766 54.531 74.5285 55.5557C72.6462 59.7881 69.5988 60.59 66.5961 60.59C63.952 60.59 60.546 59.9217 59.2912 56.0012C59.2912 55.9121 58.9326 54.3974 58.9326 54.13V51.3233C59.0223 48.7393 59.5152 46.1553 59.9634 43.5713C61.2182 37.0223 63.459 30.4732 65.8342 23.9241C66.1479 23.0331 66.4617 22.0975 66.6857 21.2065C67.0443 19.9145 67.2683 18.578 67.5372 17.3305V15.9494C67.3132 14.3456 66.7306 12.0289 64.669 10.9151C64.445 10.826 64.2657 10.6478 64.0864 10.6033C63.1005 10.2914 62.5179 10.1132 61.6664 10.1132C58.3948 10.1132 55.1681 13.009 53.017 16.8405C50.3728 21.4738 49.1628 26.3299 47.8632 31.0969C47.7287 31.5424 47.6839 31.988 47.3702 32.4335C46.1602 33.9482 44.4572 34.4828 43.1127 34.4828C42.4405 34.4828 42.1716 34.5274 41.4545 34.0373C41.0064 33.77 40.7823 33.28 40.603 32.9235C40.4237 32.5226 40.1997 32.1662 40.0204 31.7652C39.0793 29.894 37.9589 27.9338 36.7937 26.0626C34.3736 22.1866 30.385 16.885 26.0379 14.6129C24.2453 13.6773 22.5423 13.2763 20.8841 13.2763C16.9403 13.2763 13.0414 15.9049 11.5624 18.7562C10.6213 20.5382 10.4869 21.7411 10.4869 23.4341C10.4869 25.5725 11.1591 28.2011 12.0106 30.295C13.624 34.1264 16.4025 38.4925 20.1671 42.1011C23.9316 45.7098 27.965 48.2938 31.8191 50.5659C33.2981 51.457 34.777 52.2589 36.2559 53.0608C38.5863 54.3528 41.0512 55.5557 43.4712 56.6695C57.4985 62.9958 71.6155 66.1589 85.6876 67.05L88.3317 67.1836H95.3678L100.253 67.0054C111.591 66.248 123.198 63.8423 134.581 59.6099C137.046 58.6743 139.78 57.5605 142.29 56.4022C144.62 55.3329 147.085 54.0855 149.505 52.7935C150.67 52.1698 151.836 51.457 153.09 50.7441C155.331 49.4076 157.796 47.8483 160.171 46.2444C162.95 44.3733 165.863 42.1011 168.731 39.7399C168.776 39.7399 168.821 39.6954 168.91 39.7399C167.297 41.5665 165.46 43.0367 163.757 44.6406C163.577 44.8188 163.308 44.9079 163.129 45.0861C159.185 48.6502 153.449 52.7044 150.626 54.5756C146.054 57.6051 141.304 60.189 136.688 62.4166C134.94 63.2631 133.147 64.065 131.444 64.7778C130.279 65.2234 129.204 65.758 128.083 66.1589C124.408 67.4955 120.689 68.7875 117.103 69.7676C109.305 71.9506 101.283 73.1981 93.5303 73.8218L90.1692 74L79.1445 73.9555C71.7051 73.5545 64.0416 72.4407 56.647 70.6586C49.2076 68.832 41.589 66.1144 34.1496 62.6394C26.3068 58.9416 16.4474 52.8826 11.7865 48.3384C4.21267 40.9428 0.806682 33.3245 0.0448157 25.9735L0 22.2757C0.0448157 20.8055 0.31371 19.3353 0.672235 17.8651C0.806682 17.5087 0.941129 17.1078 1.03076 16.7514C2.06152 13.0981 5.64678 8.06382 9.85945 5.74714C10.3524 5.47983 10.8902 5.16797 11.3832 4.94521C11.9658 4.67791 12.6828 4.36604 13.3103 4.14329C13.9825 3.92053 14.9236 3.65322 15.6407 3.47502C15.7303 3.47502 18.0607 3.0295 18.733 3.0295H21.2426C21.8252 3.07405 22.363 3.1186 22.9904 3.20771C24.8727 3.47502 26.7998 4.14329 28.7717 5.03432C34.0151 7.48465 39.5723 12.8754 42.8438 18.3107H43.0231C44.8157 13.3209 46.9668 7.84106 52.524 3.34136C53.0618 2.89585 53.734 2.53943 54.3166 2.22757C56.647 0.980132 59.1119 0.222757 61.5319 0H64.8483Z" fill="#FFE900"/>
<path fill-rule="evenodd" clip-rule="evenodd" d="M204.584 23.5232C205.032 23.7014 205.525 24.0133 206.018 24.4142C206.152 24.5479 208.079 26.3745 208.079 26.6864C208.079 26.82 207.945 26.9537 207.9 27.0428C206.735 29.5822 205.256 32.389 203.777 34.9729C203.239 35.864 198.937 43.6159 197.189 43.6159C196.024 43.6159 195.8 41.5666 195.8 41.0765V39.5617C195.71 37.5124 197.951 23.2113 202.97 23.2113C203.598 23.2113 204.001 23.3005 204.584 23.5232ZM156.093 28.3348L156.003 31.4088C155.69 33.9483 155.197 36.7104 154.345 39.339C153.583 41.5666 152.194 45.7989 148.967 45.7989C146.234 45.7989 145.696 43.3932 145.472 40.9874L145.516 37.6906C145.651 36.6659 145.741 35.5967 145.92 34.5274C146.009 34.0374 146.144 33.5027 146.189 33.0127C146.592 31.7652 148.071 23.0331 152.687 23.0331C155.69 23.0331 155.959 26.33 156.093 28.3348ZM91.424 21.3402C91.424 21.4738 91.3343 22.4094 91.2447 22.8995C90.8862 24.5924 90.3484 26.2854 89.9899 28.0675C89.1384 32.0771 87.2113 39.339 87.2113 44.0169C87.2113 44.9079 87.1665 45.398 87.4802 46.3781C87.5698 46.7345 87.7043 47.0909 87.8835 47.4474C88.0628 47.8038 88.5109 48.3829 88.5109 48.472C88.5109 48.6948 87.0768 49.3185 86.539 49.5413C86.1805 49.6304 85.8668 49.8531 85.5083 49.8977C84.836 50.0313 84.0742 50.2095 83.4019 50.2095C82.1471 50.2095 79.8615 49.8086 79.2789 47.9374C79.1893 47.581 79.01 46.8682 79.01 46.7791V44.997C79.1445 43.6605 79.3237 42.2794 79.5478 40.8983C80.1304 37.2896 81.1612 33.6809 81.8782 30.0723C82.1023 28.9585 82.3264 27.8002 82.5056 26.6418C82.5504 26.3745 82.909 23.4341 82.909 22.6322C82.909 22.4985 82.8193 21.9639 82.7745 21.652C82.7297 21.2511 82.6401 20.8056 82.4608 20.4492C82.416 20.3155 82.2816 20.0927 82.2816 19.9591C82.2816 19.6027 83.8949 19.2463 84.2534 19.1572C85.4635 18.8008 86.6735 18.6671 87.8835 18.6671C89.5865 18.6671 91.424 19.0681 91.424 21.3402ZM204.763 18.3998C205.211 18.4443 205.659 18.4889 206.107 18.578C206.735 18.7116 207.407 18.9344 208.034 19.2017C208.483 19.3799 209.334 19.9591 209.468 19.9591C209.558 19.9591 210.051 19.4245 210.41 19.2463C211.037 18.8899 212.247 18.6225 213.009 18.6225C213.905 18.6225 216.505 19.1126 216.997 19.3799C217.132 19.469 218.073 19.7363 218.073 19.9591C218.073 20.0482 217.67 20.6719 217.535 21.0729C216.908 22.5876 216.415 24.1469 216.056 25.7508C214.936 30.2505 214.04 34.9729 213.636 39.6063C213.592 40.1409 213.502 41.2547 213.502 41.3884V43.7941C213.592 44.6852 213.681 45.5762 213.905 46.4227C214.04 46.9573 214.622 48.2938 214.622 48.3829C214.622 48.5166 214.219 48.7393 214.04 48.9176C212.83 49.8531 211.171 50.2095 209.961 50.2095C207.81 50.2095 205.704 49.3185 205.301 46.2445C205.256 45.9772 205.211 45.4425 205.211 45.3534V43.3041L205.794 38.6262C205.794 38.5816 205.794 38.4925 205.749 38.448C203.194 42.8586 198.623 50.4769 193.245 50.4769C190.153 50.4769 188.047 48.8284 187.464 44.7297C187.419 44.3733 187.33 43.705 187.33 43.6159V40.3191C187.509 38.938 187.598 37.3342 187.957 35.9976C189.346 29.8495 193.514 22.3203 198.22 19.7809C198.847 19.4245 199.475 19.1572 200.102 18.9344C200.909 18.6671 201.671 18.4889 202.522 18.3998H204.763ZM182.714 18.3998C183.699 18.5334 187.733 18.6225 187.733 21.0729C187.733 21.6075 187.733 21.4738 187.509 22.2312C187.419 22.6767 186.971 23.2559 186.612 23.746C186.478 23.9242 184.73 25.6617 184.461 25.6617C184.237 25.6617 181.907 22.0085 179.039 22.0085C176.574 22.0085 175.588 23.5232 175.588 25.6617C175.588 28.2902 177.873 29.404 180.742 31.5425C181.503 32.1662 182.579 32.7454 183.251 33.7255C184.551 35.5076 184.909 36.8887 184.909 38.5816C184.909 45.0861 180.383 49.0512 174.467 50.165C173.706 50.2986 172.271 50.4769 172.137 50.4769H169.538C168.193 50.3432 166.669 50.165 165.325 49.6749C164.698 49.4522 163.308 48.472 163.174 47.7592C163.174 47.6701 163.084 47.5365 163.084 47.4474V45.9326C163.219 44.997 164.07 44.1951 165.011 43.3932C165.684 42.814 166.445 42.1012 167.162 41.4329C167.207 41.4329 167.297 41.522 167.297 41.5666C167.521 42.1012 167.745 42.6803 168.014 43.215C169.134 45.5316 171.241 46.4227 172.988 46.4227C174.736 46.4227 176.798 45.7098 177.112 42.9922V41.7002C176.932 41.2101 176.663 40.631 176.26 40.1409C174.602 37.9133 172.271 36.3986 170.255 34.7056C169 33.7255 168.014 31.2306 168.014 29.8495V28.6466C168.104 28.0229 168.193 27.3546 168.283 26.6864C168.597 24.1024 171.599 20.5828 174.423 19.5581C174.647 19.469 174.871 19.3354 175.14 19.2463C176.484 18.7116 177.784 18.5334 179.218 18.3998H182.714ZM155.51 18.3998C162.322 19.2017 164.742 24.5479 164.742 29.1812C164.742 29.2703 164.742 29.4931 164.698 30.4287C164.608 31.6316 164.384 33.1018 164.115 34.3492C163.936 35.2848 163.622 36.2649 163.263 37.2005C162.995 37.9579 162.636 38.7598 162.233 39.5617C158.334 46.9127 153.359 50.4769 147.444 50.4769C143.634 50.4769 139.466 49.0512 137.494 43.9723C137.315 43.4823 136.867 41.8339 136.867 41.0765V37.8242C136.912 37.2896 136.957 36.755 137.046 36.2204C137.674 30.5178 142.245 22.0976 149.057 19.3354C149.64 19.1126 150.357 18.8453 151.029 18.7116C151.656 18.578 152.328 18.4889 152.956 18.3998H155.51ZM116.566 18.3998C119.389 18.8008 119.747 21.4293 119.747 23.2113C119.747 25.4835 118.672 29.2258 118.672 30.1614C118.672 30.2505 118.672 30.295 118.762 30.3841C121.002 26.5973 124.946 20.1818 129.697 18.6225C130.638 18.3107 130.862 18.3998 131.579 18.3998C131.713 18.3998 132.206 18.3552 132.52 18.3998C135.254 18.8899 135.702 21.1174 135.702 22.8995C135.702 24.9489 134.357 30.6069 134.223 31.4534C133.954 32.8345 132.296 41.1656 132.296 43.9278C132.296 45.398 132.117 44.8634 132.744 46.9573C132.878 47.4474 133.596 48.3829 133.596 48.472C133.596 48.7393 132.251 49.274 131.893 49.4522C130.772 49.9422 129.652 50.2095 128.531 50.2095C125.574 50.2095 124.543 48.4275 124.543 45.9326C124.543 45.8435 124.543 45.6207 124.588 44.3288C124.722 43.1259 124.856 41.8784 125.036 40.6755C125.798 35.9531 127.008 31.1415 127.769 26.4191V25.528C127.501 25.1271 127.501 25.1716 127.232 25.1716C126.47 25.1716 125.574 26.4191 125.036 27.1319C123.781 28.7357 122.66 30.6069 121.675 32.2553C121.226 32.9236 120.823 33.6364 120.42 34.3938C118.582 37.5124 115.49 43.5268 115.49 47.2691V47.9374C115.58 48.4275 115.804 49.274 115.804 49.3631C115.804 49.8086 113.339 50.1204 112.622 50.165C111.77 50.165 111.546 50.2095 111.457 50.2095C109.888 50.2095 108.051 49.6749 108.051 47.5365C108.051 45.2643 112.084 29.5377 112.084 25.9735C112.084 25.5726 111.994 25.1716 111.501 25.1716C110.829 25.1716 109.709 26.6418 109.35 27.0873C107.961 28.8694 106.975 30.6514 105.855 32.4335C104.645 34.3492 103.524 36.354 102.538 38.4034C101.283 40.9428 99.7597 44.4624 99.7597 47.3137C99.7597 47.4028 99.7149 47.7592 99.7597 47.982C99.8045 48.4275 100.073 49.274 100.073 49.3631C100.073 49.8086 97.6981 50.1204 96.9363 50.165C96.0848 50.165 95.9055 50.2095 95.8159 50.2095C94.8748 50.2095 93.1269 50.0313 92.4547 48.8284C92.3203 48.5166 92.141 48.0265 92.141 47.9374V46.4672C92.4547 44.0614 93.2166 41.4329 93.7544 39.0717C94.5611 35.7303 95.3229 32.389 95.9055 29.0476C96.264 27.1764 96.5329 25.2162 96.757 23.345C96.757 22.1867 96.8018 22.1867 96.8018 22.053C96.8018 20.7165 96.3537 19.9591 96.3537 19.8254C96.3537 19.6027 97.3396 19.3799 97.4741 19.3354C98.1463 19.1572 98.8185 18.8899 99.5804 18.8008C100.163 18.7116 101.328 18.6225 101.418 18.6225C103.569 18.6225 104.645 19.6027 104.645 21.6966C104.645 24.1024 103.345 28.6466 102.986 30.1614C102.986 30.1614 102.986 30.2059 103.031 30.295C103.121 30.2059 103.255 30.0277 103.345 29.8495C103.838 29.0476 104.331 28.1566 104.824 27.3992C106.706 24.4142 110.202 19.9145 113.608 18.7116C113.966 18.578 114.37 18.4889 114.773 18.3998H115.669C115.759 18.3998 116.252 18.3552 116.566 18.3998ZM93.3958 10.6033C93.3958 11.7171 92.9925 12.8309 92.4547 13.9446C92.3651 14.1228 92.0514 14.1674 91.8721 14.2565C91.2895 14.5238 90.6621 14.7466 90.0347 14.8802C89.1384 15.103 88.6902 15.1475 87.9731 15.1475C87.1216 15.1475 86.8976 15.1921 85.9116 14.7911C85.6427 14.702 85.0153 14.212 85.0153 13.811V12.7863L85.4187 10.2023C85.4187 9.6677 85.1946 9.48949 85.1946 9.22219C85.1946 8.95488 86.539 8.64302 86.8528 8.55391C88.4661 8.1084 88.735 8.1084 90.0347 8.1084C91.6032 8.1084 93.3958 8.37571 93.3958 10.6033Z" fill="#FFE900"/>
<path fill-rule="evenodd" clip-rule="evenodd" d="M221.838 13.2764C221.838 13.5437 221.614 13.7665 221.345 13.7665H220.314V12.8754H220.852C221.165 12.8754 221.838 12.7863 221.838 13.2764ZM222.375 13.2764C222.375 13.6774 222.106 14.0338 221.658 14.212C221.972 14.6129 222.331 15.103 222.599 15.5485C222.51 15.6376 222.465 15.6822 222.331 15.6822C221.882 15.6822 221.389 14.5238 221.165 14.3456C220.941 14.212 220.583 14.212 220.448 14.212C220.359 14.212 220.314 14.2565 220.269 14.3011V15.504C220.224 15.5931 220.135 15.6822 220 15.6822C219.911 15.6822 219.866 15.6376 219.821 15.5931V12.4299H220.807C221.434 12.4299 222.375 12.2517 222.375 13.2764ZM223.585 14.0338C223.585 15.4594 222.42 16.6178 220.986 16.6178C219.507 16.6178 218.387 15.4594 218.387 14.0338C218.387 12.519 219.552 11.4498 220.986 11.4498C222.51 11.4498 223.585 12.6972 223.585 14.0338ZM223.854 12.8309C224.034 13.1873 223.989 13.6328 223.989 14.0338C223.989 14.1229 224.034 14.6129 223.944 14.9248C223.541 16.5287 222.106 17.1524 220.986 17.1524C220.852 17.1524 220.448 17.1078 220.224 17.0633C220.045 17.0633 219.911 16.9296 219.731 16.8851C219.104 16.796 217.894 15.3258 217.894 14.7466V13.3209C218.656 11.3161 219.642 10.9597 220.941 10.9597C222.106 10.9597 223.182 11.2716 223.854 12.8309Z" fill="#FFE900"/>
<path fill-rule="evenodd" clip-rule="evenodd" d="M206.869 63.1295C206.869 63.7087 206.511 67.4955 205.032 67.4955C204.404 67.4955 204.18 66.7827 204.18 66.4263V65.5353C204.135 64.9115 204.718 61.5702 206.018 61.5702C206.914 61.5702 206.869 62.8176 206.869 63.1295ZM185.044 62.1939C185.044 62.8622 184.73 63.8869 183.565 64.0205C183.475 64.0205 183.386 64.1096 183.251 64.1096H182.893V63.8869C182.982 63.6195 183.431 61.4365 184.506 61.4365C184.954 61.4365 185.044 61.882 185.044 62.1939ZM167.655 61.1247C167.655 61.2138 167.297 62.5949 167.162 63.3077C167.073 63.7087 166.535 66.2035 166.535 67.05C166.535 67.6292 166.894 68.0747 166.894 68.2083C166.894 68.4757 165.549 68.743 165.504 68.743C165.28 68.743 164.384 68.5202 164.384 68.0301V66.7382C164.653 65.4462 164.966 64.1096 165.191 62.8176C165.28 62.3721 165.37 61.6147 165.37 61.4811C165.37 61.392 165.235 60.9019 165.235 60.8128C165.235 60.4118 166.535 60.3673 166.625 60.3673C167.118 60.3673 167.655 60.3673 167.655 61.1247ZM215.653 61.0356C215.653 61.392 215.07 62.1939 214.801 62.1939C214.533 62.1939 214.084 61.2583 213.278 61.2583C212.606 61.2583 212.426 61.882 212.426 62.1939C212.426 63.4413 214.936 63.6641 214.936 65.6244C214.936 67.9856 212.695 68.7875 211.171 68.7875C210.768 68.7875 209.424 68.6539 209.2 68.2083C209.11 68.0747 209.155 67.8519 209.155 67.7628C209.155 67.1391 209.289 67.0055 210.185 66.3372C210.634 67.1837 211.037 67.6737 211.754 67.6737C212.337 67.6737 212.83 67.2728 212.83 66.649C212.83 66.5154 212.785 66.2926 212.65 66.159C212.157 65.3571 211.037 64.867 210.634 64.1542C210.544 64.0205 210.41 63.3522 210.41 63.1295C210.41 60.9465 212.337 60.2782 213.86 60.2782C214.309 60.2782 215.653 60.2336 215.653 61.0356ZM209.244 63.174C209.244 65.1788 207.631 68.7875 204.673 68.7875C204.539 68.7875 204.091 68.743 203.866 68.6984C203.015 68.6093 201.895 67.4064 201.895 66.649V64.9561C202.388 62.3276 204.135 60.2782 206.421 60.2782C208.393 60.2782 209.244 61.6593 209.244 63.174ZM195.083 61.5702C195.083 63.174 194.186 65.4016 194.186 67.05C194.186 67.2728 194.321 67.941 194.545 68.2083C194.41 68.4757 193.38 68.743 193.156 68.743C192.438 68.743 191.99 68.2975 191.99 67.5846C191.99 66.159 192.842 63.3968 192.842 62.4167C192.842 62.283 192.842 62.0602 192.663 62.0602C192.394 62.0602 191.99 62.684 191.901 62.8622C191.184 63.8869 190.467 65.1343 190.063 66.2926C189.481 67.9856 189.75 67.1391 189.75 68.342C189.75 68.6093 188.674 68.743 188.584 68.743C188.405 68.743 187.554 68.5648 187.554 68.2083V67.4064C187.733 66.3817 188.764 62.8176 188.764 61.3474C188.764 61.2138 188.674 60.9019 188.674 60.7683C188.674 60.4564 189.884 60.3227 189.974 60.3227C190.108 60.3227 190.422 60.3227 190.646 60.4564C190.735 60.5009 190.96 60.6792 190.96 60.8128V61.5702C190.87 62.0157 190.78 62.4167 190.691 62.8622C190.691 62.8622 190.646 62.9067 190.78 62.9067C190.87 62.9067 192.035 60.2782 193.783 60.2782C194.724 60.2782 195.083 60.7683 195.083 61.5702ZM187.15 61.7484C187.15 62.1493 187.016 62.6394 186.836 63.0849C186.612 63.7087 185.761 64.3769 185.223 64.6442C184.73 64.9115 184.237 65.0452 183.744 65.1343C183.431 65.1788 183.072 65.2234 182.758 65.268C182.579 65.4462 182.624 65.7135 182.624 65.8917C182.624 66.8273 182.848 67.4955 183.834 67.4955C185.044 67.4955 186.164 66.4263 186.344 66.4263C186.568 66.4263 186.612 66.9164 186.612 66.9164C186.612 68.342 183.744 68.7875 183.027 68.7875C182.131 68.7875 180.966 68.6539 180.383 67.4064C180.338 67.2282 180.249 66.9609 180.249 66.8718V65.6244C180.697 62.6394 182.669 60.2782 185.313 60.2782C186.299 60.2782 187.15 60.5455 187.15 61.7484ZM175.498 61.5702C175.498 61.6593 175.364 62.5949 175.229 63.174L175.319 63.2631C175.991 62.0157 177.246 60.2782 178.546 60.2782C179.307 60.2782 179.576 60.59 179.711 61.4811L178.814 67.0055C178.814 67.3173 178.859 67.6292 178.949 67.8965C178.994 67.9856 179.128 68.0747 179.128 68.1638C179.128 68.5202 177.829 68.743 177.829 68.743C177.515 68.743 176.708 68.4757 176.708 67.8965V67.05L177.56 62.3276C177.56 62.283 177.515 62.1939 177.47 62.1048C176.619 62.5949 176.17 63.6195 175.677 64.466C175.05 65.4462 174.557 66.4708 174.378 67.5401C174.333 67.7628 174.378 68.1192 174.378 68.4311C174.198 68.5648 173.616 68.743 173.347 68.743C173.078 68.743 172.182 68.5648 172.361 67.9856L173.437 62.3276C173.347 62.1493 173.347 62.1493 173.257 62.1493C173.033 62.1493 172.451 62.9958 172.406 63.0404C171.599 64.2433 170.927 65.4462 170.479 66.649C170.344 67.0055 170.21 67.4955 170.21 67.8965C170.21 68.0301 170.3 68.2529 170.3 68.3866C170.3 68.6539 169.134 68.743 169.134 68.743C169.045 68.743 168.193 68.6093 168.193 68.2529V67.3173C168.328 66.7382 169.403 62.7731 169.403 61.2583C169.403 61.1692 169.314 60.9019 169.314 60.8128C169.314 60.6792 169.314 60.59 169.448 60.5455C169.807 60.4118 170.524 60.3227 170.613 60.3227C171.196 60.3227 171.51 60.6346 171.51 61.1247C171.51 61.2583 171.196 62.7731 171.196 62.8622C171.196 62.9958 171.196 63.0404 171.241 63.0849C172.092 61.7929 173.033 60.2782 174.378 60.2782C175.184 60.2782 175.498 60.9019 175.498 61.5702ZM156.362 64.0651H154.48C154.48 64.0651 154.435 64.0205 154.435 63.976L156.362 59.9218V64.0651ZM200.012 59.0753C200.012 59.4763 199.519 61.2583 199.519 61.3474C199.519 61.4365 199.564 61.392 199.564 61.4811H200.505C200.909 61.4365 201.491 61.3029 201.626 61.3029C201.715 61.3029 201.895 61.3474 201.895 61.4811C201.895 61.6147 201.85 61.6593 201.805 61.7038C201.76 62.3276 200.819 62.7731 200.371 62.7731H199.34C199.026 63.2631 198.713 65.3571 198.713 66.159C198.713 66.5599 198.713 67.1837 199.34 67.1837C199.699 67.1837 200.729 66.6045 200.774 66.6045C200.909 66.6045 201.043 67.1837 201.043 67.2728C201.043 68.342 199.116 68.7875 198.578 68.7875C197.906 68.7875 196.741 68.5202 196.606 67.4064C196.606 67.3173 196.562 67.2282 196.562 67.1391V66.3372C196.606 66.0699 196.651 65.8026 196.651 65.5353C196.786 64.6888 197.099 63.0849 197.099 62.9958C197.099 62.8176 196.92 62.7731 196.83 62.7731C196.696 62.7731 196.293 62.7731 196.024 62.8622C195.934 62.8622 195.844 62.9958 195.71 62.9958C195.441 62.9958 195.531 62.6394 195.531 62.5503C195.531 62.1493 195.351 61.9266 195.979 61.6147C196.382 61.392 196.92 61.4811 197.368 61.392C197.458 61.2138 197.503 60.991 197.503 60.7683C197.592 60.3227 197.727 59.4763 197.727 59.3426C197.727 59.2535 197.547 58.8525 197.547 58.7189C197.547 58.3179 198.847 58.3625 198.937 58.3625C199.519 58.3625 200.012 58.2734 200.012 59.0753ZM163.443 58.3625C164.025 58.5852 163.98 58.7189 163.98 59.1198C163.98 59.7436 162.502 65.3571 162.502 67.0055C162.502 67.0946 162.457 67.4955 162.546 67.7183C162.591 67.8519 162.815 68.0747 162.815 68.2083C162.815 68.5202 161.471 68.743 161.471 68.743C161.336 68.743 160.933 68.6539 160.709 68.5202C160.53 68.4311 160.306 68.1638 160.306 68.0747V66.8273C160.306 66.7382 161.695 60.4564 161.695 59.4317C161.695 59.2981 161.56 58.8525 161.56 58.7189C161.56 58.4961 162.278 58.3625 162.367 58.3625H163.443ZM157.93 58.1843C158.334 58.2734 158.513 58.808 158.513 59.0753L158.468 65.268C158.558 65.8917 158.603 66.5154 158.737 67.1391C158.782 67.451 159.185 68.0301 159.185 68.1638C159.185 68.4311 157.572 68.743 157.572 68.743C156.451 68.743 156.407 66.8718 156.407 66.5154V65.4462C156.362 65.4462 156.317 65.3571 156.272 65.3125H153.852C153.718 65.5353 153.583 65.8026 153.494 66.0253C153.314 66.4708 153.045 66.9609 152.911 67.451C152.821 67.6737 152.866 68.0301 152.777 68.342C152.732 68.5202 151.701 68.743 151.387 68.743C151.074 68.743 150.805 68.5648 150.805 68.2083C150.805 67.5846 152.552 64.6888 152.597 64.5997C153.27 63.3968 153.897 62.1939 154.524 60.991C154.793 60.5009 155.107 59.9663 155.331 59.4763C155.466 59.209 155.6 58.6743 155.958 58.4961C156.317 58.3179 156.81 58.2734 157.213 58.1843H157.93ZM168.193 58.2288C168.193 59.2535 167.476 59.4317 166.759 59.4317C166.266 59.4317 165.952 59.3872 165.952 58.8525C165.952 58.7634 165.997 58.0061 165.997 57.917C165.997 57.6051 167.118 57.5605 167.252 57.5605C167.655 57.5605 168.193 57.6051 168.193 58.2288Z" fill="#FFE900"/>
</g>
<defs>
<clipPath id="clip0_0_279">
<rect width="224" height="74" fill="white"/>
</clipPath>
</defs>
</svg>
